<?xml version="1.0" standalone="no"?>
<!DOCTYPE svg PUBLIC "-//W3C//DTD SVG 1.1//EN" "http://www.w3.org/Graphics/SVG/1.1/DTD/svg11.dtd" >
<svg>
<metadata>
Created by FontForge 20110222 at Tue Dec 24 06:05:20 2013
 By Orthosie Webhosting
(c)2004 G-Type.  Designed and digitized by Nick Cooke  01943 461 808
</metadata>
<defs>
<font id="SovereignRegularRegular" horiz-adv-x="500" >
  <font-face 
    font-family="SovereignRegularRegular"
    font-weight="400"
    font-stretch="normal"
    units-per-em="1000"
    panose-1="0 0 4 0 0 0 0 0 0 0"
    ascent="800"
    descent="-200"
    x-height="447"
    cap-height="659"
    bbox="-160 -318 1096 968"
    underline-thickness="20"
    underline-position="-123"
    unicode-range="U+0020-F002"
  />
<missing-glyph 
d="M63 0v675h375v-675h-375zM125 63h250v550h-250v-550z" />
    <glyph glyph-name=".notdef" 
d="M63 0v675h375v-675h-375zM125 63h250v550h-250v-550z" />
    <glyph glyph-name="glyph1" horiz-adv-x="0" 
 />
    <glyph glyph-name="glyph2" horiz-adv-x="262" 
 />
    <glyph glyph-name="space" unicode=" " horiz-adv-x="262" 
 />
    <glyph glyph-name="exclam" unicode="!" horiz-adv-x="298" 
d="M237 582q0 -51 -18 -162q-22 -139 -30 -231h-23q-8 92 -30 231q-18 111 -18 162q0 90 60 90q59 0 59 -90zM239 48q0 -25 -18 -43t-43 -18t-43 18t-18 43t18 43t43 18t43 -18t18 -43z" />
    <glyph glyph-name="quotedbl" unicode="&#x22;" horiz-adv-x="405" 
d="M335 615q0 -39 -11 -112q-10 -69 -21 -139h-24q-11 70 -21 139q-11 73 -11 112q0 57 44 57t44 -57zM175 615q0 -38 -11 -112q-11 -69 -22 -139h-23q-11 70 -21 139q-11 73 -11 112q0 57 44 57t44 -57z" />
    <glyph glyph-name="numbersign" unicode="#" horiz-adv-x="744" 
d="M696 412h-168l-24 -165h157v-66h-167l-26 -181h-72l26 181h-144l-27 -181h-72l27 181h-158v66h168l24 165h-157v66h167l26 181h72l-26 -181h144l27 181h72l-27 -181h158v-66zM456 412h-144l-24 -165h144z" />
    <glyph glyph-name="dollar" unicode="$" horiz-adv-x="620" 
d="M531 180q0 -83 -67 -138q-49 -40 -127 -51v-97h-33v93h-21q-111 0 -175 56q-20 89 -16 169q8 3 24 3q42 -177 188 -185v272q-9 5 -30 14q-86 38 -121.5 79t-35.5 100q0 63 52 111.5t135 61.5v83h33v-80q7 1 21 1q67 0 124 -20l11 -19q6 -76 -8 -155q-6 -3 -24 -3
q-8 70 -32 104q-30 43 -92 49v-247q4 -2 13 -6q98 -44 139.5 -88t41.5 -107zM304 396v232q-42 -5 -71 -31q-34 -31 -34 -79q0 -40 26 -68q23 -26 79 -54zM450 147q0 46 -28 79q-25 30 -85 60v-254q45 5 76 32q37 32 37 83z" />
    <glyph glyph-name="percent" unicode="%" horiz-adv-x="724" 
d="M335 507q0 -72 -31 -118q-36 -55 -104 -55t-104 48q-32 44 -33 116q-1 68 32 117q37 57 102 57q67 0 104 -50q34 -45 34 -115zM564 659l-356 -659h-47l357 659h46zM661 160q0 -83 -37 -128t-98 -45q-48 0 -80 24q-57 42 -57 141q0 68 32 117q38 56 102 56q46 0 79 -24
q59 -43 59 -141zM284 499q0 61 -20 100q-23 43 -65 43q-41 0 -63.5 -37.5t-22.5 -99.5q0 -70 27 -108q23 -33 59 -33q40 0 60 30q25 37 25 105zM610 153q0 61 -20 99q-23 43 -65 43t-63.5 -37t-21.5 -100q0 -71 26 -108q23 -33 60 -33q39 0 59 30q25 37 25 106z" />
    <glyph glyph-name="ampersand" unicode="&#x26;" horiz-adv-x="690" 
d="M710 26q0 -14 -3 -26q-16 -2 -53 -2q-121 0 -203 62q-76 -73 -192 -73q-98 0 -156 46q-62 49 -62 138q0 120 136 188q-53 81 -53 149q0 87 63 129q51 35 134 35q63 0 124 -18l6 -10q6 -85 -5 -154q-9 -3 -24 -3q-19 145 -112 145q-37 0 -65 -24q-33 -30 -33 -83
q0 -62 47 -132q31 -47 109 -129q75 -79 109 -111q5 8 15 26q27 50 27 90q0 64 -68 75q0 8 2 26h195q0 -8 -2 -26q-28 -10 -43 -29q-18 -22 -43 -85q-23 -56 -54 -103q89 -78 204 -101zM418 87q-53 50 -113 116q-69 77 -102 119q-65 -52 -65 -138q0 -63 41 -101.5t103 -38.5
q78 0 136 43z" />
    <glyph glyph-name="quotesingle" unicode="'" horiz-adv-x="237" 
d="M167 615q0 -38 -11 -112q-11 -69 -22 -139h-23q-11 70 -22 139q-11 74 -11 112q0 57 45 57q44 0 44 -57z" />
    <glyph glyph-name="parenleft" unicode="(" horiz-adv-x="349" 
d="M310 -130l-23 -22q-200 210 -200 457q0 246 200 458l23 -22q-74 -94 -112 -216q-35 -110 -35 -220t35 -219q38 -122 112 -216z" />
    <glyph glyph-name="parenright" unicode=")" horiz-adv-x="349" 
d="M263 305q0 -247 -200 -457l-24 22q147 185 147 435q0 111 -34 220q-39 122 -113 216l24 22q200 -212 200 -458z" />
    <glyph glyph-name="asterisk" unicode="*" horiz-adv-x="464" 
d="M400 506l-135 -23l95 -96l-66 -48l-64 121l-62 -120l-66 48l96 98l-134 22l26 78l122 -61l-20 134h82l-21 -136l122 61z" />
    <glyph glyph-name="plus" unicode="+" horiz-adv-x="573" 
d="M503 186h-186v-186h-61v186h-186v61h186v186h61v-186h186v-61z" />
    <glyph glyph-name="comma" unicode="," horiz-adv-x="274" 
d="M205 4q0 -124 -117 -191l-15 23q68 47 68 99q0 33 -30 50q-42 25 -42 59q0 32 21 50q17 15 42 15q73 0 73 -105z" />
    <glyph glyph-name="hyphen" unicode="-" horiz-adv-x="418" 
d="M335 211h-252v62h252v-62z" />
    <glyph glyph-name="hyphen" unicode="&#x2010;" horiz-adv-x="418" 
d="M335 211h-252v62h252v-62z" />
    <glyph glyph-name="period" unicode="." horiz-adv-x="260" 
d="M191 48q0 -25 -17.5 -43t-43.5 -18q-25 0 -43 18t-18 43t18 43t43 18t43 -18t18 -43z" />
    <glyph glyph-name="slash" unicode="/" horiz-adv-x="611" 
d="M611 668l-563 -880l-48 28l563 881z" />
    <glyph glyph-name="zero" unicode="0" horiz-adv-x="620" 
d="M570 338q0 -141 -57 -236q-69 -115 -201 -115q-92 0 -153 48q-109 86 -109 286q0 133 60 233q71 118 196 118q87 0 150 -48q114 -87 114 -286zM476 322q0 132 -39 215q-44 94 -126 94t-123 -79q-43 -82 -43 -217q0 -154 51 -236q44 -72 115 -72q75 0 116 66q49 80 49 229
z" />
    <glyph glyph-name="one" unicode="1" horiz-adv-x="620" 
d="M495 25q0 -13 -2 -25h-361q1 10 3 25q76 6 103.5 25.5t30.5 73.5q5 98 5 206q0 126 -2 203q-2 61 -26 76q-20 12 -110 14q0 15 2 25q99 14 233 24q-13 -116 -13 -343q0 -108 2 -190q2 -66 26.5 -86t108.5 -28z" />
    <glyph glyph-name="two" unicode="2" horiz-adv-x="620" 
d="M553 114q-35 -127 -149 -127q-46 0 -111 38t-95 38q-37 0 -50 -44q-9 -32 -36 -32q-32 0 -32 32q0 93 63 168q40 48 136.5 114t123.5 93q49 49 49 107q0 61 -36.5 95t-99.5 34q-147 0 -141 -170h-6q-5 -1 -7 -1q-65 0 -65 67q0 61 51 101q58 45 165 45q227 0 227 -176
q0 -61 -36 -106q-28 -35 -89 -70q-55 -31 -111 -61q-122 -70 -147 -161q29 26 67 26q29 0 101 -26.5t114 -26.5q54 0 94 60q13 -6 20 -17z" />
    <glyph glyph-name="three" unicode="3" horiz-adv-x="620" 
d="M523 185q0 -95 -76 -149q-67 -49 -166 -49q-103 0 -155 36q-39 27 -39 60q0 51 49 51q21 0 35 -9q-1 -7 -1 -15q0 -35 25 -58q30 -26 86 -26q61 0 104 33q50 38 50 106q0 146 -209 146q-15 0 -23 -1q-4 8 -4 19q11 24 22 38q184 39 184 156q0 113 -119 113q-66 0 -96 -49
q-26 -41 -22 -102h-5q-4 -1 -7 -1q-55 0 -55 57q0 55 45 91q51 40 143 40q199 0 199 -142q0 -114 -167 -164q94 -9 148 -55t54 -126z" />
    <glyph glyph-name="four" unicode="4" horiz-adv-x="620" 
d="M584 242q-2 -29 -5 -45q-53 1 -147 3q0 -24 1 -61q2 -68 20 -87t84 -27q0 -19 -2 -25h-305q0 13 2 25q61 5 85 25t26 74q2 43 3 76q-158 0 -290 -6q-11 21 -18 45q141 183 307 419q47 15 99 19q-14 -128 -12 -348v-88q103 0 152 1zM348 330q0 64 -2 260
q-148 -198 -256 -347q86 -1 257 -3q0 18 1 49v41z" />
    <glyph glyph-name="five" unicode="5" horiz-adv-x="620" 
d="M529 202q0 -104 -76 -163q-67 -52 -166 -52q-102 0 -153 38q-39 29 -39 70q0 53 50 53q22 0 35 -10q-2 -10 -2 -20q0 -39 27 -64q29 -28 84 -28q60 0 103 36q50 42 50 119q0 75 -44 118q-48 48 -140 48q-63 0 -119 -28q-17 17 -25 43q24 172 38 297h167h77q54 4 71 21
q11 11 18 27q13 0 21 -2q-14 -85 -33 -123h-292q-8 -65 -26 -198q59 24 129 24q110 0 176 -53q69 -56 69 -153z" />
    <glyph glyph-name="six" unicode="6" horiz-adv-x="620" 
d="M546 213q0 -97 -59 -159q-64 -67 -174 -67q-106 0 -170 75q-69 82 -69 236q0 200 93 297q75 77 192 77q78 0 126 -29t48 -74q0 -52 -46 -52q-12 0 -23 4q7 114 -113 114q-87 0 -136 -86q-45 -78 -52 -209q76 70 186 70q80 0 134 -45q63 -53 63 -152zM456 195
q0 86 -47 131q-41 39 -108 39q-71 0 -140 -66q0 -101 31 -175q42 -100 127 -100q68 0 105 55q32 47 32 116z" />
    <glyph glyph-name="seven" unicode="7" horiz-adv-x="620" 
d="M553 592q-135 -247 -297 -592h-108q166 263 339 582h-149q-95 0 -116 -3q-65 -11 -96 -56q-12 -17 -31 -61q-14 0 -22 3q5 104 43 194h421q16 -32 16 -67z" />
    <glyph glyph-name="eight" unicode="8" horiz-adv-x="620" 
d="M536 159q0 -83 -70 -130q-63 -42 -160 -42q-94 0 -155 39q-67 44 -67 122q0 110 165 192q-144 79 -144 176q0 73 68 117q60 39 142 39q81 0 135 -34q63 -40 63 -110q0 -108 -139 -171q83 -47 119 -87q43 -48 43 -111zM424 518q0 54 -31.5 86t-88.5 32q-45 0 -77 -28
q-35 -29 -35 -74q0 -46 33 -80t116 -78q83 61 83 142zM446 145q0 55 -40 95q-34 34 -123 81q-105 -80 -105 -165q0 -61 38.5 -97t100.5 -36q55 0 92 32t37 90z" />
    <glyph glyph-name="nine" unicode="9" horiz-adv-x="620" 
d="M546 361q0 -199 -93 -296q-75 -78 -191 -78q-78 0 -126.5 29t-48.5 73q0 53 47 53q11 0 22 -4q-3 -47 20 -77q28 -38 93 -38q87 0 137 87q44 77 51 209q-75 -70 -186 -70q-80 0 -134 45q-63 53 -63 152q0 97 60 159q63 67 173 67q106 0 170 -75q69 -82 69 -236zM459 359
q0 102 -31 175q-41 100 -127 100q-68 0 -105 -55q-32 -46 -32 -115q0 -87 47 -131q41 -39 108 -39q70 0 140 65z" />
    <glyph glyph-name="colon" unicode=":" horiz-adv-x="260" 
d="M191 393q0 -25 -17.5 -43t-43.5 -18q-25 0 -43 18t-18 43q0 26 18 43.5t43 17.5q26 0 43.5 -17.5t17.5 -43.5zM191 48q0 -25 -17.5 -43t-43.5 -18q-25 0 -43 18t-18 43t18 43t43 18t43 -18t18 -43z" />
    <glyph glyph-name="semicolon" unicode=";" horiz-adv-x="274" 
d="M194 393q0 -25 -18 -43t-43 -18t-43 18t-18 43q0 26 18 43.5t43 17.5t43 -18t18 -43zM207 4q0 -124 -117 -191l-15 23q68 47 68 99q0 33 -30 50q-42 25 -42 59q0 32 21 50q17 15 42 15q73 0 73 -105z" />
    <glyph glyph-name="less" unicode="&#x3c;" horiz-adv-x="528" 
d="M478 -1l-413 197v45l413 197v-59l-339 -160l339 -161v-59z" />
    <glyph glyph-name="equal" unicode="=" horiz-adv-x="565" 
d="M495 259h-425v51h425v-51zM495 119h-425v51h425v-51z" />
    <glyph glyph-name="greater" unicode="&#x3e;" horiz-adv-x="528" 
d="M463 196l-413 -197v59l339 161l-339 160v59l413 -197v-45z" />
    <glyph glyph-name="question" unicode="?" horiz-adv-x="489" 
d="M445 507q0 -59 -34 -99q-23 -28 -92 -75q-51 -35 -67 -51q-29 -30 -29 -66q0 -15 4 -31h-25q-40 38 -40 87q0 29 23 54q17 18 78 63q55 40 72 60q30 34 30 78q0 56 -36 84q-31 25 -81 25t-77 -33q-24 -29 -24 -74q0 -22 6 -44q-12 -3 -23 -3q-61 0 -61 65q0 54 45 88
q49 37 135 37q77 0 133 -42q63 -47 63 -123zM269 46q0 -25 -17 -42t-42 -17t-42 17t-17 42t17 42.5t42 17.5t42 -17.5t17 -42.5z" />
    <glyph glyph-name="at" unicode="@" horiz-adv-x="902" 
d="M829 412q0 -103 -72.5 -182t-166.5 -79q-69 0 -69 71q0 14 4 34q-85 -102 -164 -102t-79 86q0 45 23 96q34 74 99 125.5t122 51.5q55 0 65 -48l12 36l79 7l-84 -253q-7 -21 -7 -37q0 -31 28 -31q69 0 119 74q47 69 47 155q0 110 -79.5 180.5t-205.5 70.5q-150 0 -251 -98
t-101 -239q0 -145 100 -241t246 -96q110 0 192 45l14 -22q-85 -48 -206 -48q-165 0 -278 99q-117 103 -117 263q0 159 120 262q115 99 281 99q152 0 243 -82q86 -78 86 -197zM554 356q17 43 17 80q0 53 -41 53q-40 0 -89 -54q-38 -43 -62 -93q-28 -57 -28 -96q0 -49 48 -49
q56 0 119 93q23 34 36 66z" />
    <glyph glyph-name="A" unicode="A" horiz-adv-x="710" 
d="M706 25q0 -17 -2 -25h-273q0 19 1 25q77 8 77 50q0 17 -10 44q-12 35 -42 112q-55 2 -123 2q-69 0 -123 -2q-22 -63 -30 -90q-9 -30 -9 -48q0 -57 102 -68q0 -11 -2 -25h-268q0 13 2 25q55 7 79 28t47 81q28 72 69 181q70 188 119 341q22 7 58 16h14q27 -112 120 -351
q11 -29 76 -187q25 -61 47 -81.5t71 -27.5zM443 269q-7 18 -18 47q-30 78 -73 181q-11 27 -21 48q-7 -15 -20 -48q-22 -55 -69 -181q-6 -15 -17 -47q48 -1 108 -1q59 0 110 1z" />
    <glyph glyph-name="B" unicode="B" horiz-adv-x="608" 
d="M553 177q0 -179 -273 -179q-46 0 -134.5 1t-114.5 1q0 13 2 25q57 6 75 24.5t20 72.5q3 88 3 208q0 135 -1 189q-1 70 -16 85.5t-89 25.5q0 13 2 25q104 6 218 6q260 0 260 -153q0 -50 -37.5 -90.5t-100.5 -63.5q186 -33 186 -177zM418 495q0 130 -198 130l-4 -262h46
q15 0 47 -2q109 42 109 134zM461 169q0 84 -65 124q-53 34 -141 34h-40q0 -103 1 -159q1 -75 29 -104q25 -26 82 -26q54 0 89 27q45 34 45 104z" />
    <glyph glyph-name="C" unicode="C" horiz-adv-x="643" 
d="M582 92q4 -24 -2 -39q-105 -66 -240 -66q-127 0 -203 75q-86 83 -86 242q0 155 73 254q84 114 244 114q95 0 193 -25l12 -19q6 -93 -8 -176q-9 -3 -24 -3q-15 182 -183 182q-91 0 -152 -87.5t-61 -220.5q0 -277 257 -277q81 0 180 46z" />
    <glyph glyph-name="D" unicode="D" horiz-adv-x="733" 
d="M683 310q0 -164 -113 -243q-99 -69 -281 -69q-31 0 -131 1t-127 1q0 13 2 25q57 6 75 24.5t20 72.5q3 88 3 208q0 135 -1 189q-1 70 -16 85.5t-89 25.5q0 13 2 25q93 6 208 6q195 0 310 -76q138 -90 138 -275zM588 307q0 139 -88 220q-98 90 -280 92q-5 -222 -5 -289
q0 -72 1 -160q1 -79 31 -107q25 -23 91 -23q97 0 167 59q83 70 83 208z" />
    <glyph glyph-name="E" unicode="E" horiz-adv-x="582" 
d="M565 214q0 -47 -14 -116q-12 -63 -26 -98h-493q0 19 1 25q56 6 74.5 24.5t20.5 72.5q4 94 4 208q0 112 -2 192q-2 69 -17 85.5t-88 26.5q0 13 2 25h485q9 -93 -7 -176q-5 -2 -24 -2q-3 40 -12 70q-13 47 -64 60q-37 10 -157 10h-27q-2 -84 -5 -265q117 0 249 5
q-4 -55 -20 -92q-6 -3 -23 -3v22q-1 19 -1 22q-67 6 -205 8q0 -69 1 -151q1 -77 30 -104q25 -24 93 -24q92 0 139 48q38 38 62 130q17 0 24 -3z" />
    <glyph glyph-name="F" unicode="F" horiz-adv-x="532" 
d="M512 659q9 -93 -7 -176q-5 -2 -24 -2q-3 40 -12 70q-13 47 -64 60q-37 10 -157 10h-27q-2 -84 -5 -265q115 0 245 5q-2 -46 -19 -92q-7 -3 -24 -3q0 38 -1 44q-66 6 -201 8q0 -93 2 -180q1 -61 27 -83t100 -30q0 -13 -2 -25h-312q1 3 1.5 12.5t0.5 12.5q56 6 74.5 24.5
t20.5 72.5q4 94 4 208q0 112 -2 192q-2 69 -17 85.5t-88 26.5q0 13 2 25h485z" />
    <glyph glyph-name="G" unicode="G" horiz-adv-x="685" 
d="M641 281q0 -3 -0.5 -13t-1.5 -13q-32 -6 -41 -36q-5 -14 -5 -60q0 -76 5 -143q-118 -29 -231 -29q-139 0 -222 72q-94 83 -94 245q0 153 75 253q87 115 251 115q98 0 200 -25l12 -19q6 -86 -8 -176q-10 -3 -24 -3q-17 182 -190 182q-94 0 -158 -86.5t-64 -221.5
q0 -283 273 -283q39 0 95 13q0 50 -1 91q-2 68 -20 84.5t-99 26.5q0 14 2 26h246z" />
    <glyph glyph-name="H" unicode="H" horiz-adv-x="778" 
d="M758 25q0 -13 -2 -25h-288q0 13 2 25q55 6 73 24.5t20 72.5q4 113 4 195q-207 2 -352 -1q0 -21 2 -179q1 -69 15.5 -85.5t87.5 -26.5q0 -13 -2 -25h-287q0 13 2 25q57 6 75 24.5t20 72.5q3 88 3 208q0 138 -1 192q-1 70 -15.5 86t-89.5 26q0 13 2 25h288q0 -10 -2 -25
q-55 -6 -74 -25t-20 -72q-3 -108 -3 -174q73 -1 170 -1q98 0 181 1q0 111 -1 159q-1 70 -16 86t-89 26q0 13 2 25h281q0 -20 -1 -25q-53 -6 -69.5 -24.5t-18.5 -72.5q-4 -117 -4 -208q0 -81 2 -192q1 -70 16 -86t89 -26z" />
    <glyph glyph-name="I" unicode="I" horiz-adv-x="347" 
d="M328 25q0 -13 -2 -25h-294q0 19 1 25q56 6 74.5 24.5t20.5 72.5q4 94 4 208q0 112 -2 192q-2 69 -17 85.5t-88 26.5q0 13 2 25h280q0 -15 -2 -25q-51 -6 -67 -24.5t-18 -72.5q-4 -117 -4 -208q0 -136 1 -192q1 -68 17.5 -85t93.5 -27z" />
    <glyph glyph-name="J" unicode="J" horiz-adv-x="328" 
d="M307 659q0 -15 -2 -25q-51 -6 -67 -24.5t-18 -72.5q-4 -117 -4 -207q0 -34 1.5 -132.5t1.5 -130.5q0 -97 -51 -176q-56 -87 -137 -87q-28 0 -45.5 15t-17.5 36q0 26 21 39q21 -15 51 -15q39 0 73 23q21 50 21 173q0 218 -4 447q-1 69 -16 85.5t-89 26.5q0 13 2 25h280z
" />
    <glyph glyph-name="K" unicode="K" horiz-adv-x="697" 
d="M691 23q0 -15 -1 -21q-49 -11 -96 -11q-55 0 -115 78q-76 99 -175 267q-56 -41 -88 -62q0 -78 2 -137.5t27.5 -81.5t99.5 -30q0 -13 -2 -25h-311q0 19 1 25q56 6 74.5 24.5t20.5 72.5q4 94 4 208q0 112 -2 192q-2 69 -17 85.5t-88 26.5q0 13 2 25h280q0 -15 -2 -25
q-53 -6 -68.5 -25.5t-16.5 -71.5q-4 -139 -4 -214q159 107 260 211q37 38 37 63q0 34 -61 37q0 17 2 25h177q4 -9 6 -20q-60 -91 -266 -252q57 -100 123 -190q74 -103 124 -142q32 -25 73 -32z" />
    <glyph glyph-name="L" unicode="L" horiz-adv-x="572" 
d="M572 214q0 -47 -14 -116q-12 -63 -26 -98h-500q0 19 1 25q56 6 74.5 24.5t20.5 72.5q4 94 4 208q0 112 -2 192q-2 69 -17 85.5t-88 26.5q0 13 2 25h304q0 -20 -1 -25q-73 -10 -90.5 -26.5t-19.5 -71.5q-4 -117 -4 -206q0 -75 1 -162q1 -78 31 -105q27 -24 96 -24
q93 0 141 47q39 40 63 131q17 0 24 -3z" />
    <glyph glyph-name="M" unicode="M" horiz-adv-x="911" 
d="M894 25q-1 6 -1 -25h-281q0 13 2 25q56 6 73 25t16 74q-2 120 -6 206q-3 64 -11 204q-56 -120 -112 -246q-87 -195 -123 -287l-41 -4q-40 100 -125 291q-45 100 -107 236q-8 -130 -11 -194q-3 -87 -5 -191q-1 -61 23 -83.5t94 -30.5q0 -3 -0.5 -12.5t-1.5 -12.5h-260
q1 3 1.5 12.5t0.5 12.5q52 6 70.5 25t22.5 74q9 123 12 206q2 61 6 190q1 71 -12.5 87.5t-88.5 26.5q0 19 2 25h186q40 -104 131 -305q70 -154 103 -230q1 2 104 230q86 190 130 305h171q0 -15 -2 -25q-50 -6 -65.5 -25t-14.5 -75q1 -89 7 -205q5 -107 11 -190
q5 -69 20.5 -87t81.5 -27z" />
    <glyph glyph-name="N" unicode="N" horiz-adv-x="756" 
d="M740 659q0 -15 -2 -25q-46 -5 -61 -24t-17 -74q-5 -112 -6 -208q-2 -176 4 -333q-18 -11 -53 -12q-41 68 -238 317q-66 84 -194 241q0 -307 3 -395q2 -64 27 -88t98 -33q0 -13 -2 -25h-270q0 19 2 25q51 6 69 25t20 74q5 121 6 206q1 100 0 190q-1 71 -15 87.5t-90 26.5
q0 13 2 25h177q27 -45 232 -306q113 -143 179 -219q0 261 -5 380q-3 63 -27.5 87t-97.5 33q0 13 2 25h257z" />
    <glyph glyph-name="O" unicode="O" horiz-adv-x="726" 
d="M675 337q1 -164 -85 -257t-225 -93q-109 0 -183 48q-129 83 -131 286q-2 156 89 256q86 95 219 95q103 0 179 -48q135 -85 137 -287zM581 322q0 132 -51 215q-58 94 -166 94q-107 0 -162 -79q-57 -82 -57 -217q0 -154 67 -236q59 -72 153 -72q99 0 152 66q64 79 64 229z
" />
    <glyph glyph-name="P" unicode="P" horiz-adv-x="547" 
d="M524 477q-2 -101 -97 -159q-81 -49 -211 -59q0 -45 2 -122q2 -60 27.5 -82t99.5 -30q0 -13 -2 -25h-311q0 19 1 25q56 6 74.5 24.5t20.5 72.5q4 94 4 208q0 109 -2 189q-2 69 -17 85t-88 26q0 13 2 25q96 6 209 6q173 0 244 -69q45 -44 44 -115zM434 465q3 157 -213 160
q-5 -215 -5 -295v-35q215 22 218 170z" />
    <glyph glyph-name="Q" unicode="Q" horiz-adv-x="726" 
d="M715 -70q-1 -12 -5 -34q-65 -45 -130 -45q-78 0 -165 57q-121 78 -172 97q-191 70 -192 316q-1 145 79 245q87 106 229 106q147 0 233 -92q83 -90 84 -242q1 -143 -69 -237q-76 -102 -213 -113q52 -20 105 -41q71 -26 137 -26q36 0 79 9zM581 322q0 132 -51 215
q-58 94 -166 94q-106 0 -161 -79q-58 -83 -58 -217q0 -154 67 -236q59 -72 153 -72q99 0 152 66q64 79 64 229z" />
    <glyph glyph-name="R" unicode="R" horiz-adv-x="647" 
d="M651 23q1 -10 -1 -21q-49 -11 -98 -11q-31 0 -55 17t-56 61q-56 77 -125 202q-42 -10 -100 -16q0 -43 2 -118q2 -59 25.5 -81.5t86.5 -30.5q0 -13 -2 -25h-296q0 19 1 25q56 6 74.5 24.5t20.5 72.5q4 94 4 208q0 109 -2 189q-2 69 -17 85t-88 26q0 13 2 25q93 6 184 6
q181 0 253 -50q66 -46 66 -130q0 -123 -134 -183q111 -187 181 -244q28 -23 74 -31zM439 467q0 66 -40 104q-54 52 -178 52q-5 -210 -5 -293v-37q223 24 223 174z" />
    <glyph glyph-name="S" unicode="S" horiz-adv-x="541" 
d="M488 180q0 -85 -67 -139t-181 -54q-107 0 -175 56q-20 92 -15 169q8 3 23 3q45 -185 202 -185q49 0 87 28q45 33 45 89t-43 94q-36 32 -133 75q-86 38 -121 79t-35 100q0 73 68.5 125t172.5 52q66 0 124 -20l11 -19q5 -77 -9 -155q-5 -3 -24 -3q-9 75 -35 110
q-34 44 -108 44q-44 0 -78 -27q-40 -31 -40 -84q0 -46 38 -80q31 -27 112 -63q98 -44 139.5 -88t41.5 -107z" />
    <glyph glyph-name="T" unicode="T" horiz-adv-x="613" 
d="M594 659q10 -105 -7 -224q-7 -4 -25 -4q-8 105 -32 138.5t-81 44.5q-31 6 -98 7q-3 -204 -3 -294q0 -77 2 -189q1 -69 16 -86.5t79 -26.5q0 -19 -2 -25h-281q1 3 1.5 12.5t0.5 12.5q57 6 76 24.5t21 73.5q3 89 3 204q0 222 -1 294q-82 -1 -119 -12q-45 -12 -66 -48
q-16 -27 -35 -130q-17 0 -24 4q-8 122 10 224h565z" />
    <glyph glyph-name="U" unicode="U" horiz-adv-x="763" 
d="M747 659q0 -15 -2 -25q-51 -6 -66 -37q-11 -23 -13 -94q-4 -164 -4 -262q-1 -109 -56 -175q-67 -79 -207 -79q-277 0 -272 256q3 148 -1 266q-2 77 -19 95.5t-92 29.5q0 13 2 25h311q0 -13 -2 -25q-72 -8 -94 -42q-15 -24 -17 -99q-1 -86 -2 -246q-1 -93 46 -146
q55 -63 170 -63q187 0 190 200q2 150 -3 261q-4 77 -22.5 101t-85.5 34q0 5 1 13v12h238z" />
    <glyph glyph-name="V" unicode="V" horiz-adv-x="741" 
d="M731 659q0 -13 -2 -25q-59 -13 -88 -50q-21 -28 -65 -137q-66 -161 -183 -465h-61q-47 142 -173 465q-42 107 -63 136q-28 38 -86 51q0 15 2 25h303q0 -9 -2 -25q-88 -10 -88 -77q0 -37 29 -119q62 -172 135 -363q58 147 74 190q36 94 60 173q28 90 28 120q0 65 -94 76
q1 9 3 25h271z" />
    <glyph glyph-name="W" unicode="W" horiz-adv-x="1102" 
d="M1096 659q0 -16 -3 -25q-55 -13 -80 -51q-18 -27 -60 -136q-118 -310 -169 -465h-62q-42 139 -153 452q-7 19 -19 54q-3 -8 -21 -54q-113 -298 -164 -452h-62q-31 104 -158 465q-38 108 -57 136q-25 38 -79 51q0 5 2 25h288q0 -8 -2 -25q-85 -10 -85 -81q0 -38 26 -115
q38 -112 121 -356q86 235 121 356q25 86 25 118q0 67 -90 78q0 11 2 25h300q0 -16 -1 -25q-85 -10 -85 -81q0 -38 26 -115q38 -112 121 -356q86 235 121 356q25 86 25 118q0 67 -90 78q0 11 2 25h260z" />
    <glyph glyph-name="X" unicode="X" horiz-adv-x="679" 
d="M663 25q0 -7 -2 -25h-304q0 9 2 25q73 9 73 54q0 38 -61 137q-16 27 -51 82q-17 -25 -54 -78q-73 -106 -73 -144q0 -42 68 -51q0 -11 -2 -25h-243q0 18 1 25q57 15 89 47q23 23 108 140l85 119q-38 61 -76 120q-74 114 -100 140q-30 30 -90 43q0 5 2 25h306q0 -11 -2 -25
q-73 -9 -73 -54q0 -37 61 -137l33 -54q11 16 34 50q74 107 74 145q0 41 -68 50q0 11 2 25h240q0 -13 -2 -25q-56 -15 -88 -48q-22 -22 -107 -140q-20 -28 -65 -89q29 -45 96 -149q73 -114 98 -139q30 -31 89 -44z" />
    <glyph glyph-name="Y" unicode="Y" horiz-adv-x="645" 
d="M640 659q0 -17 -1 -25q-54 -15 -86 -56q-20 -26 -101 -168l-91 -160q0 -70 1 -113q2 -68 18 -85.5t86 -26.5q0 -13 -2 -25h-297q1 3 1.5 12.5t0.5 12.5q60 6 80.5 24.5t22.5 72.5q3 71 4 127q-28 57 -80 161q-66 132 -97 169q-34 40 -97 55q0 14 1 25h304q0 -16 -1 -25
q-74 -12 -74 -65q0 -45 62 -169q17 -34 51 -100l55 101q70 129 70 173q0 50 -71 60q0 9 2 25h239z" />
    <glyph glyph-name="Z" unicode="Z" horiz-adv-x="603" 
d="M575 221q-8 -124 -39 -221h-507q-10 24 -7 45q48 50 146 183q32 43 104 142q107 150 166 251h-85q-128 0 -171 -14q-55 -17 -74 -76q-11 -33 -20 -89q-16 0 -24 3q-8 112 10 214h484q9 -26 6 -46q-46 -47 -160 -202q-32 -43 -104 -142q-78 -109 -156 -231h119
q123 0 168 14q56 19 86 80q15 32 32 93q18 0 26 -4z" />
    <glyph glyph-name="bracketleft" unicode="[" horiz-adv-x="310" 
d="M285 -149h-217l3 455q0 226 -3 460h217v-43h-140l-3 -417q0 -20 2 -412h141v-43z" />
    <glyph glyph-name="backslash" unicode="\" horiz-adv-x="383" 
d="M343 6l-55 -21l-248 691l55 21z" />
    <glyph glyph-name="bracketright" unicode="]" horiz-adv-x="310" 
d="M241 -149h-216v43h141q0 113 1 251.5t1 160.5q0 62 -1 191q-2 186 -2 226h-140v43h216q-2 -156 -2 -460q0 -115 2 -455z" />
    <glyph glyph-name="asciicircum" unicode="^" horiz-adv-x="548" 
d="M461 337h-59l-127 259l-128 -259h-59l160 322h55z" />
    <glyph glyph-name="underscore" unicode="_" horiz-adv-x="479" 
d="M480 -140h-480v46h480v-46z" />
    <glyph glyph-name="grave" unicode="`" horiz-adv-x="560" 
d="M381 565l-25 -22l-177 168l59 59z" />
    <glyph glyph-name="a" unicode="a" horiz-adv-x="490" 
d="M479 29v-9q-1 -7 -1 -10q-65 -23 -104 -23q-51 0 -57 75q-42 -76 -132 -76q-63 0 -99 40q-32 35 -32 87q0 40 14 75q12 29 24 36q40 25 167 25h23q19 -1 35 -1v10q0 73 -23 108.5t-81 35.5q-55 0 -110 -20q-1 14 3 34q64 38 144 38q147 0 147 -171q0 -19 -1.5 -82
t-1.5 -83q0 -57 23 -74q16 -12 62 -15zM317 199q-42 15 -88 15q-66 0 -77 -15q-20 -28 -20 -72q0 -41 21.5 -65t58.5 -24q47 0 74.5 38t29.5 95q0 10 1 28z" />
    <glyph glyph-name="b" unicode="b" horiz-adv-x="529" 
d="M470 232q0 -121 -68 -186q-62 -59 -158 -59q-62 0 -108.5 15.5t-46.5 34.5q2 104 4 275v248q0 77 -51 77q-20 0 -60 -5q0 17 2 25q85 28 188 40l7 -11q-3 -76 -5 -270q53 38 123 38q74 0 120 -50q53 -59 53 -172zM386 214q0 96 -34 145q-31 45 -84 45q-56 0 -95 -48v-80
q0 -94 1 -137q2 -78 19 -89q28 -19 72 -19q39 0 61 16q60 44 60 167z" />
    <glyph glyph-name="c" unicode="c" horiz-adv-x="441" 
d="M404 53q0 -18 -4 -30q-80 -36 -158 -36q-183 0 -183 216q0 59 19 115t51 87q50 49 132 49q61 0 127 -18l6 -10q4 -83 -6 -135q-7 -3 -27 -3q-3 38 -10 59q-20 64 -89 64q-53 0 -85 -55t-32 -142q0 -174 157 -174q48 0 102 13z" />
    <glyph glyph-name="d" unicode="d" horiz-adv-x="531" 
d="M529 26q0 -7 -2 -20q-61 -13 -159 -9l-6 9q-2 15 -6 51q-50 -70 -124 -70t-120 50q-53 58 -53 171q0 125 64 192q52 54 163 54q40 0 72 -8v112q0 79 -51 79q-20 0 -60 -5q0 8 2 26q91 28 187 39l7 -11q-6 -132 -6 -418q0 -37 1 -128q1 -83 20.5 -95.5t70.5 -18.5z
M358 389q-46 21 -94 21q-39 0 -60 -16q-60 -47 -60 -166q0 -91 36 -138q32 -40 83 -40q57 0 92 71q1 22 3 191v77z" />
    <glyph glyph-name="e" unicode="e" horiz-adv-x="468" 
d="M410 242q-42 -17 -171 -17q-39 0 -95 2q-1 -3 -1 -12q1 -92 39.5 -134t123.5 -42q53 0 102 14q-1 -12 -5 -29q-80 -37 -160 -37q-184 0 -184 216q0 137 68 205q46 46 125 46q161 0 161 -164q0 -23 -3 -48zM331 320q0 92 -80 92q-43 0 -69.5 -38.5t-35.5 -109.5
q20 -2 60 -2q87 0 114 14q11 6 11 44z" />
    <glyph glyph-name="f" unicode="f" horiz-adv-x="313" 
d="M334 675q-2 -22 -5 -29q-24 2 -37 2q-74 0 -96.5 -29t-22.5 -111v-32q-1 -22 -1 -35q39 1 114 4q-4 -29 -11 -45q-58 4 -104 4v-70q-1 -47 -1 -71q0 -159 3 -263h-90q7 128 7 299q0 68 -1 106q-29 0 -77 -2q-3 15 0 27q43 7 49 10q27 10 27 37v36q-1 23 -1 26
q0 158 134 158q56 0 113 -22z" />
    <glyph glyph-name="g" unicode="g" horiz-adv-x="490" 
d="M470 515q0 -16 -2 -30l-10 -5q-37 28 -66 28q-54 0 -51 -85q71 -47 71 -137q0 -65 -42 -114q-23 -26 -89 -73q-34 -24 -65 -51q-8 -7 -8 -14q0 -9 10.5 -16.5t111.5 -53.5q64 -29 88 -51q37 -33 37 -86q0 -54 -53 -95q-61 -47 -168 -47q-78 0 -136 34q-65 37 -65 97
q0 46 38 82q30 29 97 60q-10 5 -19 12t-11 18q-5 21 -3 37q1 10 7 14q50 32 95 70q-94 2 -146 51q-48 46 -48 120q0 75 52 124.5t133 49.5q45 0 81 -15q-7 37 -7 70t24 53t64 20q37 0 58.5 -18.5t21.5 -48.5zM325 284q0 67 -27 101t-71 34q-41 0 -69 -34q-30 -37 -30 -100
q0 -62 37.5 -102t101.5 -46q58 62 58 147zM376 -202q0 52 -66 91q-56 26 -112 53q-87 -38 -87 -101q0 -42 32 -73q49 -48 129 -48q48 0 76 21.5t28 56.5z" />
    <glyph glyph-name="h" unicode="h" horiz-adv-x="560" 
d="M557 26q0 -15 -1 -20q-50 -10 -136 -10h-32l-7 12q6 98 6 208q0 91 -17 127q-23 46 -87 46q-52 0 -109 -38q-1 -30 -1 -83q0 -61 3 -268h-90q6 86 7 312q1 172 0 248q-1 77 -51 77q-17 0 -60 -5q0 17 1 25q86 28 189 40l8 -11q-4 -62 -6 -297q74 65 147 65
q147 0 147 -169v-66q-1 -56 -1 -80q0 -82 21 -94.5t69 -18.5z" />
    <glyph glyph-name="i" unicode="i" horiz-adv-x="260" 
d="M170 659q0 -23 -16.5 -39.5t-39.5 -16.5t-40 16.5t-17 39.5q0 24 17 40.5t40 16.5t39.5 -16.5t16.5 -40.5zM175 442q-7 -124 -7 -244q0 -78 4 -198h-91q7 113 8 222v96q0 76 -52 76q-15 0 -49 -4q0 8 2 28q79 23 177 36z" />
    <glyph glyph-name="j" unicode="j" horiz-adv-x="259" 
d="M170 658q0 -24 -16.5 -40.5t-39.5 -16.5q-24 0 -40.5 16.5t-16.5 40.5q0 23 16.5 39.5t40.5 16.5q23 0 39.5 -16.5t16.5 -39.5zM174 441q-6 -159 -6 -243q0 -32 1.5 -127t1.5 -125q0 -93 -47 -168q-52 -82 -129 -82q-26 0 -42 14t-16 34q0 23 18 36q20 -13 47 -13
q38 0 69 22q20 47 20 164q0 36 -2 136q-1 91 -1 131l1 96q-1 77 -52 77q-16 0 -59 -5q0 9 2 25q82 25 187 39z" />
    <glyph glyph-name="k" unicode="k" horiz-adv-x="492" 
d="M485 25q0 -8 -2 -20q-42 -10 -86 -10q-27 0 -46.5 16t-48.5 58q-14 20 -90 141q-12 -9 -38 -28q0 -84 2 -182h-90q6 86 7 312q1 172 0 248q-1 77 -51 77q-17 0 -60 -5q0 17 1 25q86 28 189 40l8 -11q-7 -145 -7 -418v-44q70 47 141 109q35 31 35 55q0 26 -57 26
q0 11 2 25q53 4 153 6q2 -3 7 -19q-34 -59 -182 -171q99 -158 151 -201q27 -23 62 -29z" />
    <glyph glyph-name="l" unicode="l" horiz-adv-x="267" 
d="M265 26q0 -10 -2 -20q-50 -10 -137 -10h-32l-7 12q6 98 6 303v247q0 79 -50 79q-24 0 -48 -3q0 9 2 27q91 26 175 36l7 -11q-6 -198 -6 -419q0 -75 1 -129q2 -83 22.5 -95t68.5 -17z" />
    <glyph glyph-name="m" unicode="m" horiz-adv-x="836" 
d="M834 26q0 -10 -2 -20q-50 -10 -136 -10h-32l-7 12q6 98 6 208q0 90 -17 127q-22 46 -84 46q-59 0 -111 -38q7 -27 7 -66v-97q0 -75 4 -188h-89q6 105 6 216q0 90 -17 127q-22 46 -84 46q-52 0 -102 -34q-3 -76 -3 -157q0 -78 4 -198h-91q6 93 7 222v95q0 77 -51 77
q-18 0 -61 -5q0 9 2 25q85 26 184 40l7 -12l1 -51q74 63 141 63q88 0 122 -70q82 70 161 70q145 0 145 -169v-66q-1 -56 -1 -80q0 -83 21.5 -95.5t69.5 -17.5z" />
    <glyph glyph-name="n" unicode="n" horiz-adv-x="560" 
d="M558 26q0 -10 -2 -20q-48 -10 -136 -10h-32l-7 12q6 98 6 208q0 91 -17 127q-23 46 -86 46q-51 0 -109 -37q-2 -94 -2 -154q0 -78 4 -198h-92q8 106 8 222v95q0 77 -51 77q-18 0 -61 -5q0 8 2 25q78 24 184 40l7 -12l1 -52q75 64 146 64q147 0 147 -169v-66
q-1 -56 -1 -80q0 -83 21.5 -95.5t69.5 -17.5z" />
    <glyph glyph-name="o" unicode="o" horiz-adv-x="526" 
d="M466 226q1 -113 -58 -178q-56 -61 -143 -61q-72 0 -120 31q-84 54 -86 196q-1 110 60 178q56 62 141 62q67 0 117 -32q87 -56 89 -196zM381 216q0 83 -27 134q-32 59 -91 59q-58 0 -88.5 -50t-30.5 -136q0 -96 36 -147q32 -45 84 -45q54 0 82 41q35 50 35 144z" />
    <glyph glyph-name="p" unicode="p" horiz-adv-x="530" 
d="M471 232q0 -121 -68 -186q-62 -59 -158 -59q-39 0 -71 6q0 -157 2 -194q3 -44 20 -54t69 -18q0 -14 -1 -20q-50 -10 -138 -10q-22 0 -32 1l-7 11q3 68 6 360v246q0 79 -52 79q-17 0 -60 -5q0 18 1 25q79 24 187 40l7 -12v-46q49 58 130 58q69 0 113 -50q52 -59 52 -172z
M387 214q0 91 -32 140q-30 44 -80 44q-61 0 -100 -56q-1 -48 -1 -139v-149q38 -22 92 -22q38 0 61 16q60 43 60 166z" />
    <glyph glyph-name="q" unicode="q" horiz-adv-x="539" 
d="M552 -237q0 -11 -2 -25q-84 -27 -192 -41l-7 12q2 49 6 349q-51 -71 -124 -71q-74 0 -120 50q-54 58 -54 171q0 125 64 192q52 54 162 54q60 0 103 -16q20 11 48 16l7 -12q-5 -102 -5 -238q0 -227 3 -367q1 -41 10 -57q11 -22 40 -22q21 0 61 5zM357 125v143
q-1 94 -1 117q-47 25 -92 25q-39 0 -60 -16q-60 -47 -60 -166q0 -91 36 -138q32 -40 83 -40q58 0 94 75z" />
    <glyph glyph-name="r" unicode="r" horiz-adv-x="342" 
d="M351 404q0 -26 -20 -39q-16 14 -42 14q-36 0 -65.5 -24.5t-43.5 -63.5q-1 -31 -1 -93q0 -18 3 -198h-91q7 83 8 222v95q0 77 -51 77q-21 0 -49 -4q0 13 2 27q78 24 171 37l7 -12q0 -2 1 -45v-45q47 102 119 102q24 0 38 -14t14 -36z" />
    <glyph glyph-name="s" unicode="s" horiz-adv-x="424" 
d="M371 123q0 -59 -51 -97.5t-132 -38.5q-57 0 -97 21q-47 25 -47 69q0 45 41 45q17 0 30 -8q-6 -20 3 -42q21 -49 94 -49q33 0 56 16q27 19 27 53q0 36 -28 60q-23 19 -91 50q-62 28 -87.5 56t-25.5 69q0 53 51.5 90t126.5 37q43 0 91 -14l6 -10q2 -34 2 -55q0 -30 -5 -62
q-10 -2 -26 -2q-2 23 -12 51q-19 56 -86 56q-28 0 -49 -16q-23 -19 -23 -51q0 -28 22 -47q18 -14 80 -43q72 -34 99 -62q31 -30 31 -76z" />
    <glyph glyph-name="t" unicode="t" horiz-adv-x="329" 
d="M339 50q0 -18 -4 -28q-74 -35 -139 -35q-63 0 -86 36q-21 32 -21 110q0 23 2.5 133t2.5 139q-29 0 -87 -2q-3 15 0 27q65 13 94 49q24 31 42 113q13 1 26 -5.5t14 -15.5q-5 -77 -7 -130q41 1 119 4q-3 -17 -11 -45q-32 2 -109 4q-4 -105 -4 -225q0 -79 18 -108.5
t68 -29.5q22 0 82 9z" />
    <glyph glyph-name="u" unicode="u" horiz-adv-x="564" 
d="M554 46q0 -10 -2 -20q-62 -22 -152 -35l-7 11l-6 48q-76 -63 -148 -63q-147 0 -147 170q0 25 1 76v79q0 58 -21 74q-15 11 -52 13q0 12 2 26q78 20 150 29l7 -12q-6 -100 -6 -246q0 -81 23 -112.5t80 -31.5q53 0 108 31q1 53 1 143q0 158 -3 221h91q-6 -105 -6 -226
q0 -130 8 -146q14 -28 79 -29z" />
    <glyph glyph-name="v" unicode="v" horiz-adv-x="438" 
d="M430 447q-2 -43 -35 -118q-30 -65 -61 -131q-33 -72 -90 -208h-66q-27 100 -97 298q-25 71 -39 90t-48 22q0 12 2 26q62 19 125 28l7 -13q17 -105 112 -359q25 56 53 121q54 125 60 244h77z" />
    <glyph glyph-name="w" unicode="w" horiz-adv-x="707" 
d="M698 447q-1 -43 -34 -118q-30 -65 -60 -131q-32 -72 -87 -208h-66q-24 99 -59 209q-10 32 -30 91q-14 -32 -40 -92q-59 -142 -82 -208h-66q-23 88 -63 209q-11 30 -31 89q-25 71 -37 89q-15 20 -49 23q0 12 2 26q68 21 124 28l6 -13q13 -83 67 -239q8 -24 42 -118
q17 41 50 119q46 109 46 156q0 37 -53 42q0 13 2 25q66 20 125 28l6 -13q16 -118 102 -356l51 118q51 121 58 244h76z" />
    <glyph glyph-name="x" unicode="x" horiz-adv-x="474" 
d="M444 38q0 -15 -3 -27q-39 -14 -117 -16q-32 69 -102 183q-76 -80 -121 -178h-78q17 41 71 98t108 113q-33 52 -84 131q-34 48 -74 59q0 10 2 26q31 14 110 27q36 -73 103 -185q71 82 106 178h78q-17 -42 -65.5 -98.5t-97.5 -112.5q18 -27 59 -93q33 -52 49 -69
q24 -27 56 -36z" />
    <glyph glyph-name="y" unicode="y" horiz-adv-x="456" 
d="M430 447q-16 -110 -61 -249q-44 -133 -96 -240q-59 -120 -104 -180q-75 -96 -149 -96q-26 0 -42.5 14t-16.5 37q0 25 19 39q19 -14 50 -14q92 0 178 161q-31 104 -120 359q-26 75 -40 94q-17 23 -55 27q0 12 2 26q71 21 129 29l7 -13q12 -71 70 -247q30 -91 58 -166
q85 204 102 419h69z" />
    <glyph glyph-name="z" unicode="z" horiz-adv-x="445" 
d="M403 157q1 -51 -23 -157h-334q-8 13 -6 48q24 26 83 107q36 49 69 96q56 79 104 159q-101 0 -137 -9q-50 -13 -65 -55q-6 -17 -13 -58q-19 0 -23 2q-11 66 1 146l6 11h323q8 -19 5 -48q-30 -34 -92 -120q-21 -30 -69 -97q-38 -53 -96 -145q109 0 147 8q56 13 77 56
q6 13 20 58q15 0 23 -2z" />
    <glyph glyph-name="braceleft" unicode="{" horiz-adv-x="274" 
d="M190 -198h-12q-103 0 -103 145q0 41 11 122t11 109q0 69 -39 69h-10v35h10q39 0 39 70q0 27 -11 108t-11 122q0 145 103 145h12v-31q-40 -7 -40 -93q0 -27 6.5 -90t6.5 -97q0 -111 -62 -149v-4q62 -40 62 -150q0 -34 -6.5 -97t-6.5 -90q0 -86 40 -93v-31z" />
    <glyph glyph-name="bar" unicode="|" horiz-adv-x="319" 
d="M195 -304h-71v1000h71v-1000z" />
    <glyph glyph-name="braceright" unicode="}" horiz-adv-x="274" 
d="M226 247h-10q-39 0 -39 -69q0 -28 11 -109t11 -122q0 -145 -103 -145h-12v31q40 7 40 93q0 27 -6 90t-6 97q0 110 61 150v4q-61 39 -61 149q0 34 6 97t6 90q0 86 -40 93v31h12q103 0 103 -145q0 -41 -11 -122t-11 -108q0 -70 39 -70h10v-35z" />
    <glyph glyph-name="asciitilde" unicode="~" horiz-adv-x="575" 
d="M513 240q-60 -86 -124 -86q-44 0 -109.5 31t-87.5 31q-38 0 -82 -63l-47 34q57 91 129 91q41 0 105.5 -30.5t91.5 -30.5q39 0 75 57z" />
    <glyph glyph-name="euro" horiz-adv-x="620" 
d="M568 38q-80 -51 -196 -51q-106 0 -174 59q-75 65 -94 194h-40q-27 -1 -41 -1l20 53h28q26 -1 27 -1v19q-1 12 -1 19q0 24 3 45h-34q-23 -1 -34 -1l19 53h28q27 -1 28 -1q25 113 102 181q74 66 169 66q118 0 189 -51l-16 -39q-68 32 -134 32q-85 0 -142 -53
q-52 -50 -72 -137q190 0 295 2l-20 -53q-97 2 -283 2q-2 -30 -2 -44q0 -15 2 -41q94 -1 253 2l-19 -53l-228 2q34 -194 234 -194q68 0 133 29v-38z" />
    <glyph glyph-name="euro" unicode="&#x20ac;" horiz-adv-x="620" 
d="M568 38q-80 -51 -196 -51q-106 0 -174 59q-75 65 -94 194h-40q-27 -1 -41 -1l20 53h28q26 -1 27 -1v19q-1 12 -1 19q0 24 3 45h-34q-23 -1 -34 -1l19 53h28q27 -1 28 -1q25 113 102 181q74 66 169 66q118 0 189 -51l-16 -39q-68 32 -134 32q-85 0 -142 -53
q-52 -50 -72 -137q190 0 295 2l-20 -53q-97 2 -283 2q-2 -30 -2 -44q0 -15 2 -41q94 -1 253 2l-19 -53l-228 2q34 -194 234 -194q68 0 133 29v-38z" />
    <glyph glyph-name="nonbreakingspace" unicode="&#xa0;" horiz-adv-x="263" 
 />
    <glyph glyph-name="exclamdown" unicode="&#xa1;" horiz-adv-x="259" 
d="M169 393q0 -25 -18 -43t-43 -18t-43 18t-18 43q0 26 18 43.5t43 17.5t43 -18t18 -43zM167 -142q0 -89 -59 -89q-60 0 -60 89q0 51 18 162q22 140 30 231h23q8 -91 30 -231q18 -111 18 -162z" />
    <glyph glyph-name="cent" unicode="&#xa2;" horiz-adv-x="620" 
d="M483 48q0 -18 -4 -30q-59 -27 -128 -31v-92h-27v91q-90 2 -143 58q-57 61 -57 175q0 108 62 172q55 56 138 61v89h27v-89q62 -1 121 -30q4 -14 4 -31q-61 14 -95 14q-10 0 -30 -2v-364q20 -3 40 -3q42 0 92 12zM324 46v351q-111 -30 -111 -177q0 -139 111 -174z" />
    <glyph glyph-name="sterling" unicode="&#xa3;" horiz-adv-x="620" 
d="M556 72q-46 -93 -142 -93q-46 0 -100 30q-69 37 -89 42q-63 -66 -115 -66q-39 0 -39 32q0 29 41 50q38 20 85 20h14q24 30 24 71q0 57 -25 119q-38 0 -104 -2v41q23 -1 89 -1q-48 115 -48 169q0 92 58 146q56 51 145 51q96 0 144 -40q38 -31 38 -76q0 -31 -17 -49
t-44 -18q-1 0 -5 1h-6q6 145 -112 145q-55 0 -88 -36t-33 -88q0 -42 24 -101q37 -93 41 -105q73 0 151 2v-41q-72 2 -143 2q5 -28 5 -53q0 -67 -53 -141q34 -4 101 -23q56 -16 96 -16q52 0 92 49q9 -7 15 -21z" />
    <glyph glyph-name="currency" unicode="&#xa4;" horiz-adv-x="620" 
d="M568 38q-80 -51 -196 -51q-106 0 -174 59q-75 65 -94 194h-40q-27 -1 -41 -1l20 53h28q26 -1 27 -1v19q-1 12 -1 19q0 24 3 45h-34q-23 -1 -34 -1l19 53h28q27 -1 28 -1q25 113 102 181q74 66 169 66q118 0 189 -51l-16 -39q-68 32 -134 32q-85 0 -142 -53
q-52 -50 -72 -137q190 0 295 2l-20 -53q-97 2 -283 2q-2 -30 -2 -44q0 -15 2 -41q94 -1 253 2l-19 -53l-228 2q34 -194 234 -194q68 0 133 29v-38z" />
    <glyph glyph-name="yen" unicode="&#xa5;" horiz-adv-x="645" 
d="M640 659q0 -17 -1 -25q-54 -15 -85 -56q-18 -23 -102 -168q-15 -27 -34 -59q76 0 105 1v-40q-40 1 -127 2l-35 -64v-39q118 0 162 2v-41q-90 2 -162 2q0 -4 1 -37q1 -68 17.5 -85.5t86.5 -26.5q0 -13 -2 -25h-297q1 3 1.5 12.5t0.5 12.5q60 6 80 24.5t23 72.5q1 16 2 52
q-71 0 -161 -2v41q44 -2 162 -2l1 38q-5 11 -15.5 32.5t-16.5 32.5q-47 0 -131 -2v40q31 -1 113 -1q-14 28 -30 59q-67 133 -97 168q-34 41 -97 56q0 14 1 25h304q0 -16 -1 -25q-74 -12 -74 -65q0 -45 62 -169q17 -34 51 -100l55 101q70 129 70 173q0 50 -71 60q0 9 2 25
h239z" />
    <glyph glyph-name="brokenbar" unicode="&#xa6;" horiz-adv-x="319" 
d="M195 270h-71v426h71v-426zM195 -304h-71v426h71v-426z" />
    <glyph glyph-name="section" unicode="&#xa7;" horiz-adv-x="530" 
d="M469 230q0 -111 -116 -157q82 -51 82 -131q0 -67 -62 -114.5t-157 -47.5q-55 0 -114 19l-10 16q-4 67 8 142q5 2 23 2q7 -67 31 -99q31 -41 99 -41q42 0 73 25q37 28 37 77q0 43 -35 73q-28 24 -104 59q-88 40 -125 80.5t-37 97.5q0 112 116 157q-83 51 -83 132
q0 67 62.5 114t156.5 47q61 0 115 -19l10 -16q4 -72 -8 -141q-7 -3 -23 -3q-8 67 -32 99q-31 41 -98 41q-42 0 -74 -25q-37 -28 -37 -76q0 -43 35 -74q29 -25 104 -59q89 -40 126 -80.5t37 -97.5zM399 200q0 56 -47 94q-34 27 -131 71q-90 -22 -90 -103q0 -53 42 -89
q37 -33 137 -77q89 24 89 104z" />
    <glyph glyph-name="dieresis" unicode="&#xa8;" horiz-adv-x="560" 
d="M435 659q0 -23 -16.5 -39.5t-39.5 -16.5t-40 16.5t-17 39.5q0 24 17 40.5t40 16.5t39.5 -16.5t16.5 -40.5zM238 659q0 -23 -17 -39.5t-40 -16.5t-39.5 16.5t-16.5 39.5q0 24 16.5 40.5t39.5 16.5t40 -16.5t17 -40.5z" />
    <glyph glyph-name="copyright" unicode="&#xa9;" horiz-adv-x="814" 
d="M764 329q0 -142 -104.5 -242t-252.5 -100t-252 100t-104 242t104 242.5t252 100.5t252.5 -100.5t104.5 -242.5zM718 329q0 129 -91 220t-220 91q-128 0 -219 -91t-91 -220q0 -128 91 -219t219 -91q129 0 220 91t91 219zM537 191q3 -15 -1 -22q-62 -39 -139 -39
q-74 0 -118 43q-50 49 -50 141q0 90 43 148q48 66 141 66q48 0 112 -15l7 -11q3 -50 -5 -102q-3 -1 -13 -1q-10 105 -107 105q-52 0 -88 -50.5t-36 -127.5q0 -161 150 -161q47 0 104 26z" />
    <glyph glyph-name="ordfeminine" unicode="&#xaa;" horiz-adv-x="418" 
d="M379 365v-6q-1 -5 -1 -7q-47 -17 -75 -17q-36 0 -41 54q-29 -55 -95 -55q-45 0 -71 29q-23 25 -23 62q0 29 10 55q8 21 17 26q28 17 120 17q22 0 42 -1v8q0 104 -74 104q-40 0 -80 -15q0 11 2 25q47 27 104 27q106 0 106 -123q0 -14 -1 -59.5t-1 -59.5q0 -42 16 -53
q10 -7 45 -11zM334 253h-241v34h241v-34zM262 487q-28 11 -63 11q-48 0 -56 -11q-14 -18 -14 -52q0 -64 58 -64q34 0 54 29q18 26 20 67q1 6 1 20z" />
    <glyph glyph-name="guillemotleft" unicode="&#xab;" horiz-adv-x="553" 
d="M473 85l-23 -20q-101 104 -190 177q86 71 190 176l23 -19q-57 -90 -111 -157q59 -74 111 -157zM268 85l-23 -20q-101 104 -190 177q86 71 190 176l23 -19q-57 -90 -111 -157q59 -74 111 -157z" />
    <glyph glyph-name="logicalnot" unicode="&#xac;" 
 />
    <glyph glyph-name="minus" unicode="&#xad;" horiz-adv-x="520" 
d="M450 192h-380v61h380v-61z" />
    <glyph glyph-name="minus" unicode="&#x2212;" horiz-adv-x="520" 
d="M450 192h-380v61h380v-61z" />
    <glyph glyph-name="registered" unicode="&#xae;" horiz-adv-x="814" 
d="M764 329q0 -142 -104.5 -242t-252.5 -100t-252 100t-104 242t104 242.5t252 100.5t252.5 -100.5t104.5 -242.5zM718 329q0 129 -91 220t-220 91q-128 0 -219 -91t-91 -220q0 -128 91 -219t219 -91q129 0 220 91t91 219zM592 151v-12q-24 -6 -57 -6q-32 0 -64 45
q-35 49 -73 117q-29 -8 -58 -9q0 -6 1 -69q1 -34 14.5 -47t50.5 -18q0 -11 -1 -14h-172q1 6 2 14q32 4 42.5 14.5t11.5 41.5q3 102 3 121q0 63 -1 110q-1 40 -9.5 49.5t-51.5 15.5q0 11 1 14q54 3 106 3q104 0 146 -29q39 -27 39 -75q0 -72 -78 -106q64 -108 105 -142
q17 -14 43 -18zM470 409q0 59 -58 80q-26 10 -69 11q-3 -75 -3 -171v-21q130 14 130 101z" />
    <glyph glyph-name="macron" unicode="&#xaf;" horiz-adv-x="560" 
d="M427 611h-294v62h294v-62z" />
    <glyph glyph-name="macron" unicode="&#x2c9;" horiz-adv-x="560" 
d="M427 611h-294v62h294v-62z" />
    <glyph glyph-name="degree" unicode="&#xb0;" horiz-adv-x="395" 
d="M349 523q0 -62 -44 -105t-107 -43t-107 43t-44 105t44.5 105.5t106.5 43.5t106.5 -43.5t44.5 -105.5zM311 523q0 47 -33 80.5t-80 33.5t-80.5 -33.5t-33.5 -80.5t33.5 -80t80.5 -33t80 33.5t33 79.5z" />
    <glyph glyph-name="plusminus" unicode="&#xb1;" 
 />
    <glyph glyph-name="twosuperior" unicode="&#xb2;" horiz-adv-x="386" 
d="M336 336q-22 -77 -90 -77q-28 0 -67.5 22.5t-57.5 22.5q-21 0 -29 -26q-6 -19 -22 -19q-20 0 -20 19q0 56 38 102q24 29 81 68q61 42 76 56q30 29 30 64q0 36 -22 57t-60 21q-88 0 -84 -103h-4q-3 -1 -4 -1q-41 0 -41 40q0 38 31 63q36 27 100 27q137 0 137 -106
q0 -52 -45 -87q-4 -3 -95 -56q-73 -42 -89 -96q17 15 38 15q18 0 61 -16t69 -16q33 0 56 36q6 -3 13 -10z" />
    <glyph glyph-name="threesuperior" unicode="&#xb3;" horiz-adv-x="364" 
d="M314 379q0 -57 -46 -90q-41 -30 -101 -30q-62 0 -93 22q-24 16 -24 37q0 32 30 32q12 0 22 -6q-4 -24 11 -41q18 -20 55 -20q36 0 64.5 21.5t28.5 61.5q0 89 -126 89h-7q-5 -1 -7 -1q-3 6 -3 11q9 18 13 23q111 23 111 94q0 67 -71 67q-40 0 -58 -30q-16 -25 -13 -61
q-2 -1 -7 -1q-34 0 -34 35q0 34 27 56q31 24 86 24q120 0 120 -86q0 -69 -100 -98q122 -13 122 -109z" />
    <glyph glyph-name="acute" unicode="&#xb4;" horiz-adv-x="560" 
d="M381 711l-177 -168l-25 22l143 205z" />
    <glyph glyph-name="mu" unicode="&#xb5;" horiz-adv-x="564" 
d="M554 46q0 -10 -2 -20q-60 -22 -154 -35l-7 11l-5 48q-76 -63 -147 -63q-58 0 -92 27v-52q0 -15 3 -198h-64q6 96 6 222q0 23 1 147v179q0 58 -21 74q-15 11 -52 13q0 12 2 26q78 20 150 29l7 -12q-6 -100 -6 -246q0 -81 23 -112.5t80 -31.5q53 0 108 31q1 53 1 143
q0 41 -3 221h91q-7 -102 -7 -304q0 -63 18 -79t70 -18z" />
    <glyph glyph-name="mu" unicode="&#x3bc;" horiz-adv-x="564" 
d="M554 46q0 -10 -2 -20q-60 -22 -154 -35l-7 11l-5 48q-76 -63 -147 -63q-58 0 -92 27v-52q0 -15 3 -198h-64q6 96 6 222q0 23 1 147v179q0 58 -21 74q-15 11 -52 13q0 12 2 26q78 20 150 29l7 -12q-6 -100 -6 -246q0 -81 23 -112.5t80 -31.5q53 0 108 31q1 53 1 143
q0 41 -3 221h91q-7 -102 -7 -304q0 -63 18 -79t70 -18z" />
    <glyph glyph-name="paragraph" unicode="&#xb6;" horiz-adv-x="644" 
d="M601 -192q0 -13 -2 -25h-380q0 13 2 25q56 6 75 24.5t20 72.5q4 170 4 323q-123 12 -192 73t-69 149q0 103 76 159q67 50 171 50h284q0 -15 -2 -25q-51 -6 -67 -24.5t-18 -72.5q-4 -117 -4 -316q0 -246 1 -301q1 -68 16.5 -85.5t84.5 -26.5zM438 625h-56q2 -98 2 -404
q0 -131 -3 -404h56q-2 106 -2 404q0 131 3 404z" />
    <glyph glyph-name="periodcentered" unicode="&#xb7;" horiz-adv-x="260" 
d="M191 214q0 -25 -17.5 -43t-43.5 -18q-25 0 -43 18t-18 43q0 26 18 43.5t43 17.5q26 0 43.5 -17.5t17.5 -43.5z" />
    <glyph glyph-name="periodcentered" unicode="&#x2219;" horiz-adv-x="260" 
d="M191 214q0 -25 -17.5 -43t-43.5 -18q-25 0 -43 18t-18 43q0 26 18 43.5t43 17.5q26 0 43.5 -17.5t17.5 -43.5z" />
    <glyph glyph-name="cedilla" unicode="&#xb8;" horiz-adv-x="560" 
d="M362 -129q0 -41 -30.5 -69t-74.5 -28q-22 0 -39 9q-20 11 -20 28q0 26 29 26q14 0 32.5 -7t31.5 -7q25 0 25 19q0 18 -50 41t-50 47q0 33 42 70h27q-17 -17 -17 -36q0 -12 24 -23q38 -19 46 -25q24 -18 24 -45z" />
    <glyph glyph-name="onesuperior" unicode="&#xb9;" horiz-adv-x="319" 
d="M269 287q0 -10 -2 -18h-217q0 10 2 18q47 4 63.5 15t17.5 44q3 72 3 122q0 59 -2 120q-1 37 -16 45q-11 6 -66 8q0 9 2 19q65 9 140 14q-8 -67 -8 -207q0 -78 1 -112q1 -40 15.5 -51.5t66.5 -16.5z" />
    <glyph glyph-name="ordmasculine" unicode="&#xba;" horiz-adv-x="451" 
d="M372 507q1 -82 -41 -127t-104 -45q-51 0 -86 23q-61 40 -62 141q-1 78 43 127q40 45 102 45q48 0 84 -23q63 -40 64 -141zM346 253h-241v34h241v-34zM311 500q0 57 -20 94q-23 41 -65 41q-41 0 -63.5 -35.5t-22.5 -94.5q0 -67 27 -103q23 -31 59 -31q39 0 60 29
q25 35 25 100z" />
    <glyph glyph-name="guillemotright" unicode="&#xbb;" horiz-adv-x="553" 
d="M498 242q-89 -73 -190 -177l-23 20q52 83 111 157q-54 67 -111 157l23 19q104 -105 190 -176zM293 242q-95 -79 -190 -177l-23 20q52 83 111 157q-54 67 -111 157l23 19q97 -99 190 -176z" />
    <glyph glyph-name="onequarter" unicode="&#xbc;" horiz-adv-x="785" 
d="M735 147q0 -17 -3 -29q-27 1 -88 2v-36q1 -39 12.5 -50t52.5 -16q0 -8 -2 -18h-187q0 14 1 18q38 3 52.5 14t16.5 42q1 14 2 46q-97 0 -175 -4q-4 7 -12 28q80 102 186 253q27 9 60 11q-8 -67 -8 -209q0 -33 1 -53q62 0 91 1zM635 659l-425 -659h-52l425 659h52zM269 287
q0 -10 -2 -18h-217q0 10 2 18q47 4 63.5 15t17.5 44q3 72 3 122q0 59 -2 120q-1 37 -16 45q-11 6 -66 8q0 9 2 19q65 9 140 14q-8 -67 -8 -207q0 -78 1 -112q1 -40 15.5 -51.5t66.5 -16.5zM593 199q0 96 -1 155l-153 -207q51 -1 153 -1q1 20 1 53z" />
    <glyph glyph-name="onehalf" unicode="&#xbd;" horiz-adv-x="815" 
d="M765 67q-21 -77 -90 -77q-28 0 -67 23t-57 23q-21 0 -29 -26q-6 -20 -23 -20q-19 0 -19 20q0 56 38 101q24 28 82.5 69t74.5 56q29 29 29 63q0 79 -82 79q-88 0 -84 -103q-2 -1 -8 -1q-40 0 -40 40q0 38 31 63q35 27 100 27q136 0 136 -107q0 -51 -45 -86q-4 -3 -95 -56
q-72 -42 -88 -96q17 15 38 15q17 0 60.5 -16t68.5 -16q33 0 56 36q10 -5 13 -11zM631 659l-425 -659h-52l425 659h52zM269 287q0 -10 -2 -18h-217q0 10 2 18q47 4 63.5 15t17.5 44q3 72 3 122q0 59 -2 120q-1 37 -16 45q-11 6 -66 8q0 9 2 19q65 9 140 14q-8 -67 -8 -207
q0 -78 1 -112q1 -40 15.5 -51.5t66.5 -16.5z" />
    <glyph glyph-name="threequarters" unicode="&#xbe;" horiz-adv-x="809" 
d="M759 147q0 -17 -3 -29q-27 1 -88 2q0 -5 1 -36q1 -39 12 -50t52 -16q0 -8 -2 -18h-187q0 3 1 9v9q38 3 52.5 14t16.5 42q1 14 2 46q-95 0 -175 -4q-7 13 -12 28q80 102 186 253q27 9 60 11q-7 -59 -7 -209v-53q62 0 91 1zM659 659l-425 -659h-52l425 659h52zM314 379
q0 -57 -46 -90q-41 -30 -101 -30q-62 0 -93 22q-24 16 -24 37q0 32 30 32q12 0 22 -6q-4 -24 11 -41q18 -20 55 -20q36 0 64.5 21.5t28.5 61.5q0 89 -126 89h-7q-5 -1 -7 -1q-3 6 -3 11q9 18 13 23q111 23 111 94q0 67 -71 67q-40 0 -58 -30q-16 -25 -13 -61q-2 -1 -7 -1
q-34 0 -34 35q0 34 27 56q31 24 86 24q120 0 120 -86q0 -69 -100 -98q122 -13 122 -109zM617 199q0 96 -1 155q-114 -154 -152 -207q50 -1 152 -1q1 20 1 53z" />
    <glyph glyph-name="questiondown" unicode="&#xbf;" horiz-adv-x="469" 
d="M339 394q0 -25 -17.5 -42.5t-42.5 -17.5q-24 0 -41.5 17.5t-17.5 42.5t17.5 42.5t41.5 17.5q25 0 42.5 -17.5t17.5 -42.5zM420 -106q0 -54 -45 -88q-49 -37 -134 -37q-78 0 -134 42q-63 47 -63 123q0 59 34 99q22 27 92 74q52 35 67 51q30 30 30 67q0 14 -4 30q7 1 24 1
q40 -36 40 -87q0 -30 -23 -54q-17 -19 -78 -63q-55 -40 -72 -60q-30 -34 -30 -78q0 -55 36 -84q31 -25 81 -25q51 0 77 32q24 29 24 74q0 23 -6 45q12 3 23 3q61 0 61 -65z" />
    <glyph glyph-name="Agrave" unicode="&#xc0;" horiz-adv-x="710" 
d="M706 25q0 -17 -2 -25h-273q0 19 1 25q77 8 77 50q0 17 -10 44q-12 35 -42 112q-55 2 -123 2q-69 0 -123 -2q-22 -63 -30 -90q-9 -30 -9 -48q0 -57 102 -68q0 -11 -2 -25h-268q0 13 2 25q55 7 79 28t47 81q28 72 69 181q70 188 119 341q22 7 58 16h14q27 -112 120 -351
q11 -29 76 -187q25 -61 47 -81.5t71 -27.5zM443 269q-7 18 -18 47q-30 78 -73 181q-11 27 -21 48q-7 -15 -20 -48q-22 -55 -69 -181q-6 -15 -17 -47q48 -1 108 -1q59 0 110 1zM464 745l-25 -22l-177 168l59 59z" />
    <glyph glyph-name="Aacute" unicode="&#xc1;" horiz-adv-x="710" 
d="M706 25q0 -17 -2 -25h-273q0 19 1 25q77 8 77 50q0 17 -10 44q-12 35 -42 112q-55 2 -123 2q-69 0 -123 -2q-22 -63 -30 -90q-9 -30 -9 -48q0 -57 102 -68q0 -11 -2 -25h-268q0 13 2 25q55 7 79 28t47 81q28 72 69 181q70 188 119 341q22 7 58 16h14q27 -112 120 -351
q11 -29 76 -187q25 -61 47 -81.5t71 -27.5zM443 269q-7 18 -18 47q-30 78 -73 181q-11 27 -21 48q-7 -15 -20 -48q-22 -55 -69 -181q-6 -15 -17 -47q48 -1 108 -1q59 0 110 1zM444 891l-177 -168l-25 22l143 205z" />
    <glyph glyph-name="Acircumflex" unicode="&#xc2;" horiz-adv-x="710" 
d="M706 25q0 -17 -2 -25h-273q0 19 1 25q77 8 77 50q0 17 -10 44q-12 35 -42 112q-55 2 -123 2q-69 0 -123 -2q-22 -63 -30 -90q-9 -30 -9 -48q0 -57 102 -68q0 -11 -2 -25h-268q0 13 2 25q55 7 79 28t47 81q28 72 69 181q70 188 119 341q22 7 58 16h14q27 -112 120 -351
q11 -29 76 -187q25 -61 47 -81.5t71 -27.5zM443 269q-7 18 -18 47q-30 78 -73 181q-11 27 -21 48q-7 -15 -20 -48q-22 -55 -69 -181q-6 -15 -17 -47q48 -1 108 -1q59 0 110 1zM526 739l-33 -13l-139 135l-139 -135l-33 13l161 229h23z" />
    <glyph glyph-name="Atilde" unicode="&#xc3;" horiz-adv-x="710" 
d="M706 25q0 -17 -2 -25h-273q0 19 1 25q77 8 77 50q0 17 -10 44q-12 35 -42 112q-55 2 -123 2q-69 0 -123 -2q-22 -63 -30 -90q-9 -30 -9 -48q0 -57 102 -68q0 -11 -2 -25h-268q0 13 2 25q55 7 79 28t47 81q28 72 69 181q70 188 119 341q22 7 58 16h14q27 -112 120 -351
q11 -29 76 -187q25 -61 47 -81.5t71 -27.5zM443 269q-7 18 -18 47q-30 78 -73 181q-11 27 -21 48q-7 -15 -20 -48q-22 -55 -69 -181q-6 -15 -17 -47q48 -1 108 -1q59 0 110 1zM538 825q-69 -83 -122 -83q-24 0 -69 25.5t-70 25.5q-43 0 -82 -37l-23 31q69 83 122 83
q24 0 69 -25.5t70 -25.5q43 0 82 37z" />
    <glyph glyph-name="Adieresis" unicode="&#xc4;" horiz-adv-x="710" 
d="M706 25q0 -17 -2 -25h-273q0 19 1 25q77 8 77 50q0 17 -10 44q-12 35 -42 112q-55 2 -123 2q-69 0 -123 -2q-22 -63 -30 -90q-9 -30 -9 -48q0 -57 102 -68q0 -11 -2 -25h-268q0 13 2 25q55 7 79 28t47 81q28 72 69 181q70 188 119 341q22 7 58 16h14q27 -112 120 -351
q11 -29 76 -187q25 -61 47 -81.5t71 -27.5zM443 269q-7 18 -18 47q-30 78 -73 181q-11 27 -21 48q-7 -15 -20 -48q-22 -55 -69 -181q-6 -15 -17 -47q48 -1 108 -1q59 0 110 1zM509 839q0 -23 -16.5 -39.5t-39.5 -16.5t-40 16.5t-17 39.5q0 24 17 40.5t40 16.5t39.5 -16.5
t16.5 -40.5zM312 839q0 -23 -17 -39.5t-40 -16.5t-39.5 16.5t-16.5 39.5q0 24 16.5 40.5t39.5 16.5t40 -16.5t17 -40.5z" />
    <glyph glyph-name="Aring" unicode="&#xc5;" horiz-adv-x="710" 
d="M706 25q0 -17 -2 -25h-273q0 19 1 25q77 8 77 50q0 17 -10 44q-12 35 -42 112q-55 2 -123 2q-69 0 -123 -2q-22 -63 -30 -90q-9 -30 -9 -48q0 -57 102 -68q0 -11 -2 -25h-268q0 13 2 25q55 7 79 28t47 81q28 72 69 181q70 188 119 341q22 7 58 16h14q27 -112 120 -351
q11 -29 76 -187q25 -61 47 -81.5t71 -27.5zM443 269q-7 18 -18 47q-30 78 -73 181q-11 27 -21 48q-7 -15 -20 -48q-22 -55 -69 -181q-6 -15 -17 -47q48 -1 108 -1q59 0 110 1zM444 817q0 -37 -26.5 -63t-63.5 -26t-63.5 26t-26.5 63t26 62.5t64 25.5t64 -25.5t26 -62.5z
M404 817q0 20 -14.5 35t-35.5 15t-35.5 -15t-14.5 -35q0 -21 14.5 -36t35.5 -15t35.5 15t14.5 36z" />
    <glyph glyph-name="AE" unicode="&#xc6;" horiz-adv-x="966" 
d="M948 214q1 -46 -13 -116q-12 -61 -26 -98h-494q0 13 2 25q57 6 74.5 24.5t19.5 72.5q1 47 3 115q-54 2 -124 2q-69 0 -121 -2q-31 -49 -56 -90.5t-25 -66.5q0 -45 85 -55q0 -18 -2 -25h-267q0 13 2 25q55 7 87 31q29 22 69 82q31 46 125 193q70 109 119 189q21 34 21 56
q0 45 -94 58q0 13 2 25h560q9 -93 -7 -176q-5 -2 -24 -2q-3 40 -12 70q-13 47 -63 60q-38 10 -158 10h-27q-2 -84 -5 -265q117 0 249 5q-2 -46 -19 -92q-7 -3 -24 -3q0 38 -1 44q-67 6 -205 8q0 -69 1 -151q1 -77 30 -104q25 -24 93 -24q93 0 140 48q38 39 61 130
q18 0 24 -3zM515 330q0 75 -2 191q-1 47 -3 82q-25 -30 -58 -81q-29 -44 -127 -196q-10 -16 -32 -49q50 -1 111 -1q62 0 111 1v53z" />
    <glyph glyph-name="Ccedilla" unicode="&#xc7;" horiz-adv-x="643" 
d="M582 92q4 -24 -2 -39q-97 -63 -229 -66q-7 -12 -7 -23q0 -12 24 -23q38 -19 46 -25q24 -18 24 -45q0 -41 -30 -69t-75 -28q-22 0 -40 10t-18 27q0 26 29 26q14 0 32.5 -7t31.5 -7q25 0 25 19q0 18 -50 41t-50 47q0 29 28 57q-120 6 -191 81q-79 83 -79 236q0 155 73 254
q84 114 244 114q95 0 193 -25l12 -19q6 -93 -8 -176q-9 -3 -24 -3q-15 182 -183 182q-91 0 -152 -87.5t-61 -220.5q0 -277 257 -277q81 0 180 46z" />
    <glyph glyph-name="Egrave" unicode="&#xc8;" horiz-adv-x="582" 
d="M565 214q1 -47 -13 -116q-13 -62 -27 -98h-493q0 19 1 25q56 6 74.5 24.5t20.5 72.5q4 94 4 208q0 112 -2 192q-2 69 -17 85.5t-88 26.5q0 13 2 25h485q9 -93 -7 -176q-5 -2 -24 -2q-3 40 -12 70q-13 47 -64 60q-37 10 -157 10h-27q-2 -84 -5 -265q117 0 249 5
q-4 -55 -20 -92q-6 -3 -23 -3v22q-1 19 -1 22q-67 6 -205 8q0 -69 1 -151q1 -77 30 -104q25 -24 93 -24q92 0 139 48q38 38 62 130q17 0 24 -3zM397 745l-25 -22l-177 168l59 59z" />
    <glyph glyph-name="Eacute" unicode="&#xc9;" horiz-adv-x="582" 
d="M565 214q1 -47 -13 -116q-13 -62 -27 -98h-493q0 19 1 25q56 6 74.5 24.5t20.5 72.5q4 94 4 208q0 112 -2 192q-2 69 -17 85.5t-88 26.5q0 13 2 25h485q9 -93 -7 -176q-5 -2 -24 -2q-3 40 -12 70q-13 47 -64 60q-37 10 -157 10h-27q-2 -84 -5 -265q117 0 249 5
q-4 -55 -20 -92q-6 -3 -23 -3v22q-1 19 -1 22q-67 6 -205 8q0 -69 1 -151q1 -77 30 -104q25 -24 93 -24q92 0 139 48q38 38 62 130q17 0 24 -3zM416 891l-177 -168l-25 22l143 205z" />
    <glyph glyph-name="Ecircumflex" unicode="&#xca;" horiz-adv-x="582" 
d="M565 214q1 -47 -13 -116q-13 -62 -27 -98h-493q0 19 1 25q56 6 74.5 24.5t20.5 72.5q4 94 4 208q0 112 -2 192q-2 69 -17 85.5t-88 26.5q0 13 2 25h485q9 -93 -7 -176q-5 -2 -24 -2q-3 40 -12 70q-13 47 -64 60q-37 10 -157 10h-27q-2 -84 -5 -265q117 0 249 5
q-4 -55 -20 -92q-6 -3 -23 -3v22q-1 19 -1 22q-67 6 -205 8q0 -69 1 -151q1 -77 30 -104q25 -24 93 -24q92 0 139 48q38 38 62 130q17 0 24 -3zM464 739l-32 -13l-139 135l-140 -135l-32 13l161 229h23z" />
    <glyph glyph-name="Edieresis" unicode="&#xcb;" horiz-adv-x="582" 
d="M565 214q1 -47 -13 -116q-13 -62 -27 -98h-493q0 19 1 25q56 6 74.5 24.5t20.5 72.5q4 94 4 208q0 112 -2 192q-2 69 -17 85.5t-88 26.5q0 13 2 25h485q9 -93 -7 -176q-5 -2 -24 -2q-3 40 -12 70q-13 47 -64 60q-37 10 -157 10h-27q-2 -84 -5 -265q117 0 249 5
q-4 -55 -20 -92q-6 -3 -23 -3v22q-1 19 -1 22q-67 6 -205 8q0 -69 1 -151q1 -77 30 -104q25 -24 93 -24q92 0 139 48q38 38 62 130q17 0 24 -3zM447 839q0 -23 -16.5 -39.5t-39.5 -16.5q-24 0 -40.5 16.5t-16.5 39.5q0 24 16.5 40.5t40.5 16.5q23 0 39.5 -16.5t16.5 -40.5z
M250 839q0 -23 -17 -39.5t-40 -16.5t-40 16.5t-17 39.5q0 24 17 40.5t40 16.5t40 -16.5t17 -40.5z" />
    <glyph glyph-name="Igrave" unicode="&#xcc;" horiz-adv-x="345" 
d="M328 25q0 -13 -2 -25h-294q0 19 1 25q56 6 74.5 24.5t20.5 72.5q4 94 4 208q0 112 -2 192q-2 69 -17 85.5t-88 26.5q0 13 2 25h280q0 -15 -2 -25q-51 -6 -67 -24.5t-18 -72.5q-4 -117 -4 -208q0 -136 1 -192q1 -68 17.5 -85t93.5 -27zM285 745l-25 -22l-177 168l59 59z
" />
    <glyph glyph-name="Iacute" unicode="&#xcd;" horiz-adv-x="345" 
d="M328 25q0 -13 -2 -25h-294q0 19 1 25q56 6 74.5 24.5t20.5 72.5q4 94 4 208q0 112 -2 192q-2 69 -17 85.5t-88 26.5q0 13 2 25h280q0 -15 -2 -25q-51 -6 -67 -24.5t-18 -72.5q-4 -117 -4 -208q0 -136 1 -192q1 -68 17.5 -85t93.5 -27zM274 891l-177 -168l-25 22l143 205z
" />
    <glyph glyph-name="Icircumflex" unicode="&#xce;" horiz-adv-x="345" 
d="M328 25q0 -13 -2 -25h-294q0 19 1 25q56 6 74.5 24.5t20.5 72.5q4 94 4 208q0 112 -2 192q-2 69 -17 85.5t-88 26.5q0 13 2 25h280q0 -15 -2 -25q-51 -6 -67 -24.5t-18 -72.5q-4 -117 -4 -208q0 -136 1 -192q1 -68 17.5 -85t93.5 -27zM340 739l-33 -13l-139 135
l-139 -135l-33 13l161 229h23z" />
    <glyph glyph-name="Idieresis" unicode="&#xcf;" horiz-adv-x="345" 
d="M328 25q0 -13 -2 -25h-294q0 19 1 25q56 6 74.5 24.5t20.5 72.5q4 94 4 208q0 112 -2 192q-2 69 -17 85.5t-88 26.5q0 13 2 25h280q0 -15 -2 -25q-51 -6 -67 -24.5t-18 -72.5q-4 -117 -4 -208q0 -136 1 -192q1 -68 17.5 -85t93.5 -27zM328 839q0 -23 -16.5 -39.5
t-39.5 -16.5t-40 16.5t-17 39.5q0 24 17 40.5t40 16.5t39.5 -16.5t16.5 -40.5zM131 839q0 -23 -17 -39.5t-40 -16.5t-39.5 16.5t-16.5 39.5q0 24 16.5 40.5t39.5 16.5t40 -16.5t17 -40.5z" />
    <glyph glyph-name="Eth" unicode="&#xd0;" horiz-adv-x="734" 
d="M683 310q0 -165 -112 -243q-99 -69 -282 -69q-30 0 -130 1t-128 1q1 3 1.5 12.5t0.5 12.5q57 6 75 24.5t20 72.5q4 115 4 201h-118v42h118q0 59 -2 154q-1 70 -15.5 85.5t-89.5 25.5q1 3 1.5 12.5t0.5 12.5q93 6 209 6q200 0 314 -78q133 -91 133 -273zM588 307
q0 156 -108 238q-97 72 -260 74l-4 -254h124v-42h-124q0 -67 1 -153q1 -79 31 -107q25 -23 91 -23q96 0 167 59q82 68 82 208z" />
    <glyph glyph-name="Ntilde" unicode="&#xd1;" horiz-adv-x="760" 
d="M740 659q0 -15 -2 -25q-46 -5 -61 -24t-17 -74q-5 -112 -6 -208q-2 -176 4 -333q-18 -11 -53 -12q-41 68 -238 317q-66 84 -194 241q0 -307 3 -395q2 -64 27 -88t98 -33q0 -13 -2 -25h-270q0 19 2 25q51 6 69 25t20 74q5 121 6 206q1 100 0 190q-1 71 -15 87.5t-90 26.5
q0 13 2 25h177q27 -45 232 -306q113 -143 179 -219q0 261 -5 380q-3 63 -27.5 87t-97.5 33q0 13 2 25h257zM571 825q-69 -83 -122 -83q-24 0 -69 25.5t-70 25.5q-43 0 -82 -37l-23 31q69 83 122 83q24 0 69 -25.5t70 -25.5q43 0 82 37z" />
    <glyph glyph-name="Ograve" unicode="&#xd2;" horiz-adv-x="726" 
d="M675 337q1 -164 -85 -257t-225 -93q-109 0 -183 48q-129 83 -131 286q-2 156 89 256q86 95 219 95q103 0 179 -48q135 -85 137 -287zM581 322q0 132 -51 215q-58 94 -166 94q-107 0 -162 -79q-57 -82 -57 -217q0 -154 67 -236q59 -72 153 -72q99 0 152 66q64 79 64 229z
M475 745l-25 -22l-177 168l59 59z" />
    <glyph glyph-name="Oacute" unicode="&#xd3;" horiz-adv-x="726" 
d="M675 337q1 -164 -85 -257t-225 -93q-109 0 -183 48q-129 83 -131 286q-2 156 89 256q86 95 219 95q103 0 179 -48q135 -85 137 -287zM581 322q0 132 -51 215q-58 94 -166 94q-107 0 -162 -79q-57 -82 -57 -217q0 -154 67 -236q59 -72 153 -72q99 0 152 66q64 79 64 229z
M448 891l-177 -168l-25 22l143 205z" />
    <glyph glyph-name="Ocircumflex" unicode="&#xd4;" horiz-adv-x="726" 
d="M675 337q1 -164 -85 -257t-225 -93q-109 0 -183 48q-129 83 -131 286q-2 156 89 256q86 95 219 95q103 0 179 -48q135 -85 137 -287zM581 322q0 132 -51 215q-58 94 -166 94q-107 0 -162 -79q-57 -82 -57 -217q0 -154 67 -236q59 -72 153 -72q99 0 152 66q64 79 64 229z
M537 739l-33 -13l-139 135l-139 -135l-33 13l161 229h23z" />
    <glyph glyph-name="Otilde" unicode="&#xd5;" horiz-adv-x="726" 
d="M675 337q1 -164 -85 -257t-225 -93q-109 0 -183 48q-129 83 -131 286q-2 156 89 256q86 95 219 95q103 0 179 -48q135 -85 137 -287zM581 322q0 132 -51 215q-58 94 -166 94q-107 0 -162 -79q-57 -82 -57 -217q0 -154 67 -236q59 -72 153 -72q99 0 152 66q64 79 64 229z
M549 825q-69 -83 -122 -83q-24 0 -69 25.5t-70 25.5q-43 0 -82 -37l-23 31q69 83 122 83q24 0 69 -25.5t70 -25.5q43 0 82 37z" />
    <glyph glyph-name="Odieresis" unicode="&#xd6;" horiz-adv-x="726" 
d="M675 337q1 -164 -85 -257t-225 -93q-109 0 -183 48q-129 83 -131 286q-2 156 89 256q86 95 219 95q103 0 179 -48q135 -85 137 -287zM581 322q0 132 -51 215q-58 94 -166 94q-107 0 -162 -79q-57 -82 -57 -217q0 -154 67 -236q59 -72 153 -72q99 0 152 66q64 79 64 229z
M513 839q0 -23 -16.5 -39.5t-39.5 -16.5t-40 16.5t-17 39.5q0 24 17 40.5t40 16.5t39.5 -16.5t16.5 -40.5zM316 839q0 -23 -17 -39.5t-40 -16.5t-39.5 16.5t-16.5 39.5q0 24 16.5 40.5t39.5 16.5t40 -16.5t17 -40.5z" />
    <glyph glyph-name="multiply" unicode="&#xd7;" horiz-adv-x="470" 
d="M410 85l-44 -43l-131 131l-131 -131l-44 43l131 132l-131 131l44 43l131 -131l131 131l44 -43l-131 -131z" />
    <glyph glyph-name="Oslash" unicode="&#xd8;" horiz-adv-x="726" 
d="M675 337q1 -164 -85 -257t-225 -93q-108 0 -183 48q-6 3 -11 8l-84 -129l-30 20l86 132q-90 87 -92 255q-2 156 89 256q86 95 219 95q86 0 156 -34l69 107l30 -20l-69 -105q128 -86 130 -283zM484 591q-50 40 -120 40q-107 0 -162 -79q-57 -82 -57 -217q0 -124 43 -200z
M581 322q0 159 -71 243l-301 -463q60 -75 156 -75q99 0 152 66q64 79 64 229z" />
    <glyph glyph-name="Ugrave" unicode="&#xd9;" horiz-adv-x="763" 
d="M747 659q0 -15 -2 -25q-51 -6 -66 -37q-11 -23 -13 -94q-4 -164 -4 -262q-1 -109 -56 -175q-67 -79 -207 -79q-277 0 -272 256q3 148 -1 266q-2 77 -19 95.5t-92 29.5q0 13 2 25h311q0 -13 -2 -25q-72 -8 -94 -42q-15 -24 -17 -99q-1 -86 -2 -246q-1 -93 46 -146
q55 -63 170 -63q187 0 190 200q2 150 -3 261q-4 77 -22.5 101t-85.5 34q0 5 1 13v12h238zM517 745l-25 -22l-177 168l59 59z" />
    <glyph glyph-name="Uacute" unicode="&#xda;" horiz-adv-x="763" 
d="M747 659q0 -15 -2 -25q-51 -6 -66 -37q-11 -23 -13 -94q-4 -164 -4 -262q-1 -109 -56 -175q-67 -79 -207 -79q-277 0 -272 256q3 148 -1 266q-2 77 -19 95.5t-92 29.5q0 13 2 25h311q0 -13 -2 -25q-72 -8 -94 -42q-15 -24 -17 -99q-1 -86 -2 -246q-1 -93 46 -146
q55 -63 170 -63q187 0 190 200q2 150 -3 261q-4 77 -22.5 101t-85.5 34q0 5 1 13v12h238zM508 891l-177 -168l-25 22l143 205z" />
    <glyph glyph-name="Ucircumflex" unicode="&#xdb;" horiz-adv-x="763" 
d="M747 659q0 -15 -2 -25q-51 -6 -66 -37q-11 -23 -13 -94q-4 -164 -4 -262q-1 -109 -56 -175q-67 -79 -207 -79q-277 0 -272 256q3 148 -1 266q-2 77 -19 95.5t-92 29.5q0 13 2 25h311q0 -13 -2 -25q-72 -8 -94 -42q-15 -24 -17 -99q-1 -86 -2 -246q-1 -93 46 -146
q55 -63 170 -63q187 0 190 200q2 150 -3 261q-4 77 -22.5 101t-85.5 34q0 5 1 13v12h238zM587 739l-33 -13l-139 135l-139 -135l-33 13l161 229h23z" />
    <glyph glyph-name="Udieresis" unicode="&#xdc;" horiz-adv-x="763" 
d="M747 659q0 -15 -2 -25q-51 -6 -66 -37q-11 -23 -13 -94q-4 -164 -4 -262q-1 -109 -56 -175q-67 -79 -207 -79q-277 0 -272 256q3 148 -1 266q-2 77 -19 95.5t-92 29.5q0 13 2 25h311q0 -13 -2 -25q-72 -8 -94 -42q-15 -24 -17 -99q-1 -86 -2 -246q-1 -93 46 -146
q55 -63 170 -63q187 0 190 200q2 150 -3 261q-4 77 -22.5 101t-85.5 34q0 5 1 13v12h238zM571 839q0 -23 -16.5 -39.5t-39.5 -16.5t-40 16.5t-17 39.5q0 24 17 40.5t40 16.5t39.5 -16.5t16.5 -40.5zM374 839q0 -23 -17 -39.5t-40 -16.5t-39.5 16.5t-16.5 39.5
q0 24 16.5 40.5t39.5 16.5t40 -16.5t17 -40.5z" />
    <glyph glyph-name="Yacute" unicode="&#xdd;" horiz-adv-x="645" 
d="M640 659q0 -17 -1 -25q-54 -15 -86 -56q-20 -26 -101 -168l-91 -160q0 -70 1 -113q2 -68 18 -85.5t86 -26.5q0 -13 -2 -25h-297q1 3 1.5 12.5t0.5 12.5q60 6 80.5 24.5t22.5 72.5q3 71 4 127q-28 57 -80 161q-66 132 -97 169q-34 40 -97 55q0 14 1 25h304q0 -16 -1 -25
q-74 -12 -74 -65q0 -45 62 -169q17 -34 51 -100l55 101q70 129 70 173q0 50 -71 60q0 9 2 25h239zM441 891l-177 -168l-25 22l143 205z" />
    <glyph glyph-name="Thorn" unicode="&#xde;" horiz-adv-x="547" 
d="M520 372q-2 -82 -96 -129q-78 -40 -207 -49q0 -29 1 -55q2 -61 32 -83q23 -17 96 -25q0 -19 -3 -31h-312q0 15 2 31q57 6 75 24t20 72q4 118 4 203q0 106 -2 187q-2 70 -16.5 85.5t-89.5 25.5q0 19 3 31h280q0 -17 -2 -31q-49 -5 -65.5 -22t-19.5 -67l-1 -17
q133 0 204 -27q99 -38 97 -123zM430 361q3 130 -212 130q-2 -104 -2 -162v-105q211 19 214 137z" />
    <glyph glyph-name="germandbls" unicode="&#xdf;" horiz-adv-x="556" 
d="M497 148q0 -74 -54.5 -117.5t-133.5 -43.5q-126 0 -154 59q2 -161 4 -209h-90q6 77 6 302q0 131 -1 226q-2 162 48 236q47 71 146 71q85 0 132 -44q42 -38 42 -98q0 -111 -125 -153q-4 -22 35 -55q39 -28 77 -56q68 -50 68 -118zM420 114q0 54 -49 96l-90 66
q-49 40 -49 90q0 10 2 22q128 19 128 132q0 56 -30 87q-27 27 -71 27q-62 0 -86 -55q-20 -47 -20 -146v-330q11 20 34 20q17 0 30 -8q-5 -22 2 -39q20 -51 90 -51q49 0 79 24t30 65z" />
    <glyph glyph-name="agrave" unicode="&#xe0;" horiz-adv-x="490" 
d="M337 565l-24 -22l-177 168l59 59zM479 29q0 -7 -2 -19q-63 -23 -103 -23q-52 0 -58 75q-40 -76 -132 -76q-63 0 -99 40q-32 35 -32 87q0 40 14 75q12 29 24 36q40 25 167 25h23q20 -1 35 -1v10q0 74 -21 107q-24 37 -82 37q-55 0 -110 -20q-2 17 2 34q64 38 145 38
q147 0 147 -171q0 -19 -1.5 -82t-1.5 -83q0 -57 23 -74q16 -12 62 -15zM316 199q-40 15 -87 15q-65 0 -78 -15q-19 -28 -19 -72q0 -41 21.5 -65t58.5 -24q47 0 74 38t29 95q1 8 1 28z" />
    <glyph glyph-name="aacute" unicode="&#xe1;" horiz-adv-x="490" 
d="M479 29q0 -7 -2 -19q-63 -23 -103 -23q-52 0 -58 75q-40 -76 -132 -76q-63 0 -99 40q-32 35 -32 87q0 40 14 75q12 29 24 36q40 25 167 25h23q20 -1 35 -1v10q0 74 -21 107q-24 37 -82 37q-55 0 -110 -20q-2 17 2 34q64 38 145 38q147 0 147 -171q0 -19 -1.5 -82
t-1.5 -83q0 -57 23 -74q16 -12 62 -15zM316 199q-40 15 -87 15q-65 0 -78 -15q-19 -28 -19 -72q0 -41 21.5 -65t58.5 -24q47 0 74 38t29 95q1 8 1 28zM335 711l-177 -168l-24 22l142 205z" />
    <glyph glyph-name="acircumflex" unicode="&#xe2;" horiz-adv-x="490" 
d="M479 29q0 -7 -2 -19q-63 -23 -103 -23q-52 0 -58 75q-40 -76 -132 -76q-63 0 -99 40q-32 35 -32 87q0 40 14 75q12 29 24 36q40 25 167 25h23q20 -1 35 -1v10q0 74 -21 107q-24 37 -82 37q-55 0 -110 -20q-2 17 2 34q64 38 145 38q147 0 147 -171q0 -19 -1.5 -82
t-1.5 -83q0 -57 23 -74q16 -12 62 -15zM316 199q-40 15 -87 15q-65 0 -78 -15q-19 -28 -19 -72q0 -41 21.5 -65t58.5 -24q47 0 74 38t29 95q1 8 1 28zM409 559l-32 -13l-139 135l-140 -135l-32 13l161 229h22z" />
    <glyph glyph-name="atilde" unicode="&#xe3;" horiz-adv-x="492" 
d="M481 29v-9q-1 -7 -1 -10q-65 -23 -104 -23q-51 0 -57 75q-42 -76 -133 -76q-62 0 -98 40q-32 35 -32 87q0 40 14 75q12 29 24 36q40 25 167 25h23q19 -1 34 -1v10q0 74 -21 107q-24 37 -82 37q-55 0 -110 -20q-1 14 3 34q64 38 144 38q147 0 147 -171q0 -19 -1.5 -82
t-1.5 -83q0 -57 23 -74q16 -12 62 -15zM318 199q-40 15 -87 15q-66 0 -77 -15q-20 -28 -20 -72q0 -41 21.5 -65t58.5 -24q47 0 74.5 38t29.5 95v28zM425 645q-69 -83 -122 -83q-24 0 -69 25.5t-70 25.5q-43 0 -82 -37l-23 31q69 83 122 83q24 0 69 -25.5t70 -25.5
q41 0 82 37z" />
    <glyph glyph-name="adieresis" unicode="&#xe4;" horiz-adv-x="490" 
d="M479 29q0 -7 -2 -19q-63 -23 -103 -23q-52 0 -58 75q-40 -76 -132 -76q-63 0 -99 40q-32 35 -32 87q0 40 14 75q12 29 24 36q40 25 167 25h23q20 -1 35 -1v10q0 74 -21 107q-24 37 -82 37q-55 0 -110 -20q-2 17 2 34q64 38 145 38q147 0 147 -171q0 -19 -1.5 -82
t-1.5 -83q0 -57 23 -74q16 -12 62 -15zM316 199q-40 15 -87 15q-65 0 -78 -15q-19 -28 -19 -72q0 -41 21.5 -65t58.5 -24q47 0 74 38t29 95q1 8 1 28zM398 659q0 -23 -16.5 -39.5t-40.5 -16.5q-23 0 -39.5 16.5t-16.5 39.5q0 24 16.5 40.5t39.5 16.5q24 0 40.5 -16.5
t16.5 -40.5zM200 659q0 -23 -16.5 -39.5t-39.5 -16.5t-40 16.5t-17 39.5q0 24 17 40.5t40 16.5t39.5 -16.5t16.5 -40.5z" />
    <glyph glyph-name="aring" unicode="&#xe5;" horiz-adv-x="490" 
d="M479 29q0 -7 -2 -19q-63 -23 -103 -23q-52 0 -58 75q-40 -76 -132 -76q-63 0 -99 40q-32 35 -32 87q0 40 14 75q12 29 24 36q40 25 167 25h23q20 -1 35 -1v10q0 74 -21 107q-24 37 -82 37q-55 0 -110 -20q-2 17 2 34q64 38 145 38q147 0 147 -171q0 -19 -1.5 -82
t-1.5 -83q0 -57 23 -74q16 -12 62 -15zM316 199q-40 15 -87 15q-65 0 -78 -15q-19 -28 -19 -72q0 -41 21.5 -65t58.5 -24q47 0 74 38t29 95q1 8 1 28zM325 637q0 -37 -26.5 -63t-64.5 -26q-37 0 -63.5 26t-26.5 63t26.5 62.5t63.5 25.5q38 0 64.5 -25.5t26.5 -62.5zM285 637
q0 20 -15 35t-36 15q-20 0 -35 -15t-15 -35q0 -21 15 -36t35 -15q21 0 36 15t15 36z" />
    <glyph glyph-name="ae" unicode="&#xe6;" horiz-adv-x="724" 
d="M666 242q-42 -17 -171 -17q-39 0 -95 2v-12q0 -176 162 -176q53 0 102 14q0 -19 -4 -29q-82 -37 -160 -37q-127 0 -166 103q-39 -103 -148 -103q-63 0 -99 41q-33 37 -33 91q0 42 14 78q12 30 24 38q46 29 167 29h23q19 -1 35 -1q-1 71 -22 104q-24 36 -81 36
q-50 0 -111 -21q0 21 3 34q64 38 145 38q86 0 121 -62q49 62 137 62q160 0 160 -164q0 -22 -3 -48zM587 320q0 92 -80 92q-42 0 -68.5 -37t-35.5 -111q18 -2 60 -2q86 0 113 14q11 6 11 44zM317 224q-30 4 -88 4q-64 0 -77 -19q-20 -29 -20 -76q0 -43 22 -68t59 -25
q101 0 104 184z" />
    <glyph glyph-name="ccedilla" unicode="&#xe7;" horiz-adv-x="441" 
d="M404 52q0 -17 -4 -29q-73 -32 -141 -36q-7 -10 -7 -23q0 -12 24 -23q38 -19 46 -25q24 -18 24 -45q0 -41 -30.5 -69t-75.5 -28q-21 0 -38 9q-20 11 -20 28q0 26 29 26q14 0 32.5 -7t31.5 -7q25 0 25 19q0 18 -50 41t-50 46q0 28 28 58q-169 9 -169 216q0 59 19 115t51 87
q50 49 132 49q61 0 127 -18l6 -10q4 -83 -6 -135q-5 -2 -26 -2q-1 32 -10 59q-20 64 -90 64q-53 0 -85.5 -55.5t-32.5 -142.5q0 -175 159 -175q55 0 101 13z" />
    <glyph glyph-name="egrave" unicode="&#xe8;" horiz-adv-x="468" 
d="M410 242q-42 -17 -171 -17q-39 0 -95 2q-1 -3 -1 -12q1 -92 39.5 -134t123.5 -42q53 0 102 14q-1 -12 -5 -29q-80 -37 -160 -37q-184 0 -184 216q0 137 68 205q46 46 125 46q161 0 161 -164q0 -23 -3 -48zM331 320q0 92 -80 92q-43 0 -69.5 -38.5t-35.5 -109.5
q20 -2 60 -2q87 0 114 14q11 6 11 44zM338 565l-25 -22l-177 168l59 59z" />
    <glyph glyph-name="eacute" unicode="&#xe9;" horiz-adv-x="468" 
d="M410 242q-42 -17 -171 -17q-39 0 -95 2q-1 -3 -1 -12q1 -92 39.5 -134t123.5 -42q53 0 102 14q-1 -12 -5 -29q-80 -37 -160 -37q-184 0 -184 216q0 137 68 205q46 46 125 46q161 0 161 -164q0 -23 -3 -48zM331 320q0 92 -80 92q-43 0 -69.5 -38.5t-35.5 -109.5
q20 -2 60 -2q87 0 114 14q11 6 11 44zM342 711l-177 -168l-25 22l143 205z" />
    <glyph glyph-name="ecircumflex" unicode="&#xea;" horiz-adv-x="468" 
d="M410 242q-42 -17 -171 -17q-39 0 -95 2q-1 -3 -1 -12q1 -92 39.5 -134t123.5 -42q53 0 102 14q-1 -12 -5 -29q-80 -37 -160 -37q-184 0 -184 216q0 137 68 205q46 46 125 46q161 0 161 -164q0 -23 -3 -48zM331 320q0 92 -80 92q-43 0 -69.5 -38.5t-35.5 -109.5
q20 -2 60 -2q87 0 114 14q11 6 11 44zM416 559l-33 -13l-139 135l-139 -135l-33 13l161 229h23z" />
    <glyph glyph-name="edieresis" unicode="&#xeb;" horiz-adv-x="468" 
d="M410 242q-42 -17 -171 -17q-39 0 -95 2q-1 -3 -1 -12q1 -92 39.5 -134t123.5 -42q53 0 102 14q-1 -12 -5 -29q-80 -37 -160 -37q-184 0 -184 216q0 137 68 205q46 46 125 46q161 0 161 -164q0 -23 -3 -48zM331 320q0 92 -80 92q-43 0 -69.5 -38.5t-35.5 -109.5
q20 -2 60 -2q87 0 114 14q11 6 11 44zM401 659q0 -23 -16.5 -39.5t-39.5 -16.5t-40 16.5t-17 39.5q0 24 17 40.5t40 16.5t39.5 -16.5t16.5 -40.5zM204 659q0 -23 -17 -39.5t-40 -16.5t-39.5 16.5t-16.5 39.5q0 24 16.5 40.5t39.5 16.5t40 -16.5t17 -40.5z" />
    <glyph glyph-name="igrave" unicode="&#xec;" horiz-adv-x="260" 
d="M174 442q-6 -159 -6 -244q0 -78 4 -198h-92q7 87 8 222l1 96q-1 76 -52 76q-17 0 -49 -4q0 8 2 28q77 23 177 36zM199 565l-25 -22l-177 168l59 59z" />
    <glyph glyph-name="iacute" unicode="&#xed;" horiz-adv-x="260" 
d="M174 442q-6 -159 -6 -244q0 -78 4 -198h-92q7 87 8 222l1 96q-1 76 -52 76q-17 0 -49 -4q0 8 2 28q77 23 177 36zM211 711l-177 -168l-25 22l143 205z" />
    <glyph glyph-name="icircumflex" unicode="&#xee;" horiz-adv-x="260" 
d="M174 442q-6 -159 -6 -244q0 -78 4 -198h-92q7 87 8 222l1 96q-1 76 -52 76q-17 0 -49 -4q0 8 2 28q77 23 177 36zM289 559l-33 -13l-139 135l-139 -135l-33 13l161 229h23z" />
    <glyph glyph-name="idieresis" unicode="&#xef;" horiz-adv-x="260" 
d="M174 442q-6 -159 -6 -244q0 -78 4 -198h-92q7 87 8 222l1 96q-1 76 -52 76q-17 0 -49 -4q0 8 2 28q77 23 177 36zM268 659q0 -23 -16.5 -39.5t-39.5 -16.5t-40 16.5t-17 39.5q0 24 17 40.5t40 16.5t39.5 -16.5t16.5 -40.5zM71 659q0 -23 -17 -39.5t-40 -16.5t-39.5 16.5
t-16.5 39.5q0 24 16.5 40.5t39.5 16.5t40 -16.5t17 -40.5z" />
    <glyph glyph-name="eth" unicode="&#xf0;" horiz-adv-x="559" 
d="M500 216q0 -105 -61 -167t-157 -62q-77 0 -129 30q-92 53 -94 189q-2 104 65 171q60 60 152 60q60 0 94 -23q-43 79 -122 147l-104 -93l-26 27l102 90q-36 30 -90 65l19 23q62 -32 102 -59l66 59l26 -27l-60 -53q217 -158 217 -377zM415 208q0 80 -31 129q-36 57 -103 57
t-102 -49t-35 -130q0 -92 42 -142q37 -43 95 -43q63 0 95 39q39 48 39 139z" />
    <glyph glyph-name="ntilde" unicode="&#xf1;" horiz-adv-x="560" 
d="M558 26q0 -10 -2 -20q-48 -10 -136 -10h-32l-7 12q6 98 6 208q0 91 -17 127q-23 46 -86 46q-51 0 -109 -37q-2 -94 -2 -154q0 -78 4 -198h-91q6 93 7 222v95q0 77 -51 77q-20 0 -60 -5q0 16 1 25q78 24 184 40l7 -12l1 -52q75 64 146 64q147 0 147 -169v-66
q-1 -56 -1 -80q0 -83 21.5 -95.5t69.5 -17.5zM453 645q-69 -83 -122 -83q-24 0 -69 25.5t-70 25.5q-41 0 -82 -37l-23 31q69 83 122 83q24 0 69 -25.5t70 -25.5q43 0 82 37z" />
    <glyph glyph-name="ograve" unicode="&#xf2;" horiz-adv-x="526" 
d="M357 565l-25 -22l-177 168l59 59zM466 226q1 -113 -58 -178q-56 -61 -143 -61q-72 0 -120 31q-84 54 -86 196q-1 110 60 178q56 62 141 62q67 0 117 -32q87 -56 89 -196zM381 216q0 83 -27 134q-32 59 -91 59q-58 0 -88.5 -50t-30.5 -136q0 -96 36 -147q32 -45 84 -45
q54 0 82 41q35 50 35 144z" />
    <glyph glyph-name="oacute" unicode="&#xf3;" horiz-adv-x="526" 
d="M466 226q1 -113 -58 -178q-56 -61 -143 -61q-72 0 -120 31q-84 54 -86 196q-1 110 60 178q56 62 141 62q67 0 117 -32q87 -56 89 -196zM381 216q0 83 -27 134q-32 59 -91 59q-58 0 -88.5 -50t-30.5 -136q0 -96 36 -147q32 -45 84 -45q54 0 82 41q35 50 35 144zM354 711
l-177 -168l-25 22l143 205z" />
    <glyph glyph-name="ocircumflex" unicode="&#xf4;" horiz-adv-x="526" 
d="M466 226q1 -113 -58 -178q-56 -61 -143 -61q-72 0 -120 31q-84 54 -86 196q-1 110 60 178q56 62 141 62q67 0 117 -32q87 -56 89 -196zM381 216q0 83 -27 134q-32 59 -91 59q-58 0 -88.5 -50t-30.5 -136q0 -96 36 -147q32 -45 84 -45q54 0 82 41q35 50 35 144zM429 559
l-33 -13l-139 135l-139 -135l-32 13l160 229h23z" />
    <glyph glyph-name="otilde" unicode="&#xf5;" horiz-adv-x="526" 
d="M466 226q1 -113 -58 -178q-56 -61 -143 -61q-72 0 -120 31q-84 54 -86 196q-1 110 60 178q56 62 141 62q67 0 117 -32q87 -56 89 -196zM381 216q0 83 -27 134q-32 59 -91 59q-58 0 -88.5 -50t-30.5 -136q0 -96 36 -147q32 -45 84 -45q54 0 82 41q35 50 35 144zM443 645
q-69 -83 -122 -83q-24 0 -69 25.5t-70 25.5q-41 0 -82 -37l-23 31q71 83 122 83q24 0 69 -25.5t70 -25.5q43 0 82 37z" />
    <glyph glyph-name="odieresis" unicode="&#xf6;" horiz-adv-x="526" 
d="M466 226q1 -113 -58 -178q-56 -61 -143 -61q-72 0 -120 31q-84 54 -86 196q-1 110 60 178q56 62 141 62q67 0 117 -32q87 -56 89 -196zM381 216q0 83 -27 134q-32 59 -91 59q-58 0 -88.5 -50t-30.5 -136q0 -96 36 -147q32 -45 84 -45q54 0 82 41q35 50 35 144zM408 659
q0 -23 -16.5 -39.5t-39.5 -16.5q-24 0 -40.5 16.5t-16.5 39.5q0 24 16.5 40.5t40.5 16.5q23 0 39.5 -16.5t16.5 -40.5zM211 659q0 -23 -17 -39.5t-40 -16.5t-40 16.5t-17 39.5q0 24 17 40.5t40 16.5t40 -16.5t17 -40.5z" />
    <glyph glyph-name="divide" unicode="&#xf7;" horiz-adv-x="543" 
d="M320 384q0 -20 -14.5 -34.5t-34.5 -14.5t-34 14.5t-14 34.5t14 34.5t34 14.5t34.5 -14.5t14.5 -34.5zM473 188h-403v62h403v-62zM320 54q0 -20 -14.5 -34t-34.5 -14t-34 14t-14 34t14 34.5t34 14.5t34.5 -14.5t14.5 -34.5z" />
    <glyph glyph-name="oslash" unicode="&#xf8;" horiz-adv-x="526" 
d="M467 226q1 -112 -59 -178q-56 -61 -143 -61q-72 0 -119 31l-3 2l-55 -84l-24 15l57 88q-61 58 -62 175q-1 111 60 178q56 62 141 62q65 0 112 -29l51 80l24 -16l-52 -80q71 -59 72 -183zM339 374q-30 35 -75 35q-58 0 -88 -49q-32 -53 -32 -137q0 -69 20 -117zM382 216
q0 80 -26 132l-176 -271q32 -46 84 -46q55 0 83 41q35 50 35 144z" />
    <glyph glyph-name="ugrave" unicode="&#xf9;" horiz-adv-x="564" 
d="M554 46q0 -10 -2 -20q-62 -22 -152 -35l-7 11l-6 48q-76 -63 -148 -63q-147 0 -147 170q0 25 1 76v79q0 58 -21 74q-15 11 -52 13q0 12 2 26q78 20 150 29l7 -12q-6 -100 -6 -246q0 -81 23 -112.5t80 -31.5q53 0 108 31q1 53 1 143q0 158 -3 221h91q-6 -105 -6 -226
q0 -130 8 -146q14 -28 79 -29zM359 565l-25 -22l-177 168l59 59z" />
    <glyph glyph-name="uacute" unicode="&#xfa;" horiz-adv-x="564" 
d="M554 46q0 -10 -2 -20q-62 -22 -152 -35l-7 11l-6 48q-76 -63 -148 -63q-147 0 -147 170q0 25 1 76v79q0 58 -21 74q-15 11 -52 13q0 12 2 26q78 20 150 29l7 -12q-6 -100 -6 -246q0 -81 23 -112.5t80 -31.5q53 0 108 31q1 53 1 143q0 158 -3 221h91q-6 -105 -6 -226
q0 -130 8 -146q14 -28 79 -29zM364 711l-177 -168l-25 22l143 205z" />
    <glyph glyph-name="ucircumflex" unicode="&#xfb;" horiz-adv-x="564" 
d="M554 46q0 -10 -2 -20q-62 -22 -152 -35l-7 11l-6 48q-76 -63 -148 -63q-147 0 -147 170q0 25 1 76v79q0 58 -21 74q-15 11 -52 13q0 12 2 26q78 20 150 29l7 -12q-6 -100 -6 -246q0 -81 23 -112.5t80 -31.5q53 0 108 31q1 53 1 143q0 158 -3 221h91q-6 -105 -6 -226
q0 -130 8 -146q14 -28 79 -29zM431 559l-33 -13l-139 135l-139 -135l-33 13l161 229h23z" />
    <glyph glyph-name="udieresis" unicode="&#xfc;" horiz-adv-x="564" 
d="M554 46q0 -10 -2 -20q-62 -22 -152 -35l-7 11l-6 48q-76 -63 -148 -63q-147 0 -147 170q0 25 1 76v79q0 58 -21 74q-15 11 -52 13q0 12 2 26q78 20 150 29l7 -12q-6 -100 -6 -246q0 -81 23 -112.5t80 -31.5q53 0 108 31q1 53 1 143q0 158 -3 221h91q-6 -105 -6 -226
q0 -130 8 -146q14 -28 79 -29zM417 659q0 -23 -16.5 -39.5t-39.5 -16.5t-40 16.5t-17 39.5q0 24 17 40.5t40 16.5t39.5 -16.5t16.5 -40.5zM220 659q0 -23 -17 -39.5t-40 -16.5t-39.5 16.5t-16.5 39.5q0 24 16.5 40.5t39.5 16.5t40 -16.5t17 -40.5z" />
    <glyph glyph-name="yacute" unicode="&#xfd;" horiz-adv-x="456" 
d="M430 447q-16 -110 -61 -249q-44 -133 -96 -240q-59 -120 -104 -180q-75 -96 -149 -96q-26 0 -42.5 14t-16.5 37q0 25 19 39q19 -14 50 -14q92 0 177 161q-29 99 -119 359q-26 75 -40 94q-17 23 -55 27q0 12 2 26q71 21 129 29l7 -13q14 -80 70 -247q37 -109 58 -166
q86 206 101 419h70zM326 711l-177 -168l-24 22l142 205z" />
    <glyph glyph-name="thorn" unicode="&#xfe;" horiz-adv-x="530" 
d="M471 232q0 -121 -68 -186q-62 -59 -159 -59q-38 0 -70 6v-153q0 -41 2 -51q4 -34 20.5 -44t68.5 -18q0 -8 -2 -20q-48 -10 -137 -10q-22 0 -32 1l-7 11q4 88 6 360q1 94 0 245q-1 193 -1 244q0 79 -51 79q-17 0 -60 -5q0 18 1 25q85 28 189 40l7 -11q-2 -35 -4 -292
q49 60 132 60q69 0 113 -50q52 -59 52 -172zM386 214q0 91 -32 140q-29 44 -79 44q-63 0 -101 -58v-46q-1 -28 -1 -35q0 -143 1 -205q37 -22 92 -22q38 0 61 16q59 42 59 166z" />
    <glyph glyph-name="ydieresis" unicode="&#xff;" horiz-adv-x="456" 
d="M430 447q-16 -110 -61 -249q-44 -133 -96 -240q-59 -120 -104 -180q-75 -96 -149 -96q-26 0 -42.5 14t-16.5 37q0 25 19 39q19 -14 50 -14q92 0 177 161q-29 99 -119 359q-26 75 -40 94q-17 23 -55 27q0 12 2 26q71 21 129 29l7 -13q14 -80 70 -247q37 -109 58 -166
q86 206 101 419h70zM375 659q0 -23 -17 -39.5t-40 -16.5t-40 16.5t-17 39.5q0 24 17 40.5t40 16.5t40 -16.5t17 -40.5zM177 659q0 -23 -16.5 -39.5t-40.5 -16.5q-23 0 -39.5 16.5t-16.5 39.5q0 24 16.5 40.5t39.5 16.5q24 0 40.5 -16.5t16.5 -40.5z" />
    <glyph glyph-name="dotlessi" unicode="&#x131;" horiz-adv-x="260" 
d="M174 442q-6 -159 -6 -244q0 -78 4 -198h-92q7 87 8 222l1 96q-1 76 -52 76q-17 0 -49 -4q0 8 2 28q77 23 177 36z" />
    <glyph glyph-name="Lslash" unicode="&#x141;" horiz-adv-x="574" 
d="M572 214q0 -47 -14 -116q-12 -63 -26 -98h-500q0 19 1 25q56 6 74.5 24.5t20.5 72.5q2 49 4 171l-135 -75l-20 36l155 86q0 103 -2 182q-2 69 -17 85.5t-88 26.5q0 13 2 25h304q0 -20 -1 -25q-73 -10 -90.5 -26t-19.5 -71q-1 -48 -4 -150l145 81l20 -36l-165 -92
q0 -89 1 -172q1 -78 31 -105q27 -24 96 -24q93 0 141 48q39 39 63 130q17 0 24 -3z" />
    <glyph glyph-name="lslash" unicode="&#x142;" horiz-adv-x="267" 
d="M305 420l-132 -72v-81q0 -75 1 -129q2 -83 22.5 -95t68.5 -17q0 -10 -2 -20q-48 -10 -137 -10h-32l-7 12q6 71 6 295l-120 -67l-20 36l141 78q-1 14 -1 208q0 79 -50 79q-24 0 -48 -3q0 9 2 27q94 26 175 36l8 -11q-4 -69 -6 -291l111 61z" />
    <glyph glyph-name="OE" unicode="&#x152;" horiz-adv-x="967" 
d="M950 214q0 -46 -14 -116q-12 -61 -26 -98h-544q-106 0 -180 44q-134 80 -135 277q-1 163 99 256q88 82 208 82h538q9 -93 -7 -176q-4 -2 -24 -2q-4 47 -11 70q-14 47 -64 60q-38 10 -158 10h-27l-4 -265q116 0 248 5q-2 -53 -19 -92q-6 -3 -24 -3q0 38 -1 44
q-66 6 -204 8v-151q1 -77 30 -105q26 -23 93 -23q92 0 140 48q38 38 62 130q17 0 24 -3zM516 330q0 134 -1 174q-2 66 -32 91t-100 25q-123 0 -180.5 -78.5t-57.5 -207.5q0 -158 77 -234q62 -63 164 -63q124 0 127 101q3 88 3 192z" />
    <glyph glyph-name="oe" unicode="&#x153;" horiz-adv-x="789" 
d="M731 242q-42 -17 -171 -17q-38 0 -96 2v-12q0 -176 163 -176q52 0 101 14q0 -19 -4 -29q-80 -37 -160 -37q-105 0 -150 73q-23 -31 -61 -51q-43 -22 -89 -22q-70 0 -119 32q-85 56 -86 195q-1 111 60 178q56 62 140 62q66 0 116 -32q29 -18 48 -49q50 81 150 81
q161 0 161 -166q0 -22 -3 -46zM651 320q0 92 -79 92q-43 0 -69.5 -37t-35.5 -111q20 -2 60 -2q87 0 114 14q10 5 10 44zM380 216q0 83 -27 134q-32 59 -91 59q-58 0 -88.5 -50t-30.5 -135q0 -97 36 -148q32 -45 84 -45q54 0 82 41q35 50 35 144z" />
    <glyph glyph-name="Scaron" unicode="&#x160;" horiz-adv-x="541" 
d="M488 180q0 -85 -67 -139t-181 -54q-107 0 -175 56q-20 92 -15 169q8 3 23 3q45 -185 202 -185q49 0 87 28q45 33 45 89t-43 94q-36 32 -133 75q-86 38 -121 79t-35 100q0 73 68.5 125t172.5 52q66 0 124 -20l11 -19q5 -77 -9 -155q-5 -3 -24 -3q-9 75 -35 110
q-34 44 -108 44q-44 0 -78 -27q-40 -31 -40 -84q0 -46 38 -80q31 -27 112 -63q98 -44 139.5 -88t41.5 -107zM457 955l-161 -229h-23l-160 229l33 13l139 -135l139 135z" />
    <glyph glyph-name="scaron" unicode="&#x161;" horiz-adv-x="421" 
d="M371 123q0 -59 -51 -97.5t-132 -38.5q-57 0 -97 21q-47 25 -47 69q0 45 41 45q17 0 30 -8q-6 -20 3 -42q21 -49 94 -49q33 0 56 16q27 19 27 53q0 36 -28 60q-23 19 -91 50q-62 28 -87.5 56t-25.5 69q0 53 51.5 90t126.5 37q43 0 91 -14l6 -10q2 -34 2 -55q0 -30 -5 -62
q-10 -2 -26 -2q-2 23 -12 51q-19 56 -86 56q-28 0 -49 -16q-23 -19 -23 -51q0 -28 22 -47q18 -14 80 -43q72 -34 99 -62q31 -30 31 -76zM376 775l-161 -229h-23l-160 229l33 13l139 -135l139 135z" />
    <glyph glyph-name="Ydieresis" unicode="&#x178;" horiz-adv-x="645" 
d="M640 659q0 -17 -1 -25q-54 -15 -86 -56q-20 -26 -101 -168l-91 -160q0 -70 1 -113q2 -68 18 -85.5t86 -26.5q0 -13 -2 -25h-297q1 3 1.5 12.5t0.5 12.5q60 6 80.5 24.5t22.5 72.5q3 71 4 127q-28 57 -80 161q-66 132 -97 169q-34 40 -97 55q0 14 1 25h304q0 -16 -1 -25
q-74 -12 -74 -65q0 -45 62 -169q17 -34 51 -100l55 101q70 129 70 173q0 50 -71 60q0 9 2 25h239zM496 839q0 -23 -16.5 -39.5t-39.5 -16.5t-40 16.5t-17 39.5q0 24 17 40.5t40 16.5t39.5 -16.5t16.5 -40.5zM299 839q0 -23 -17 -39.5t-40 -16.5t-39.5 16.5t-16.5 39.5
q0 24 16.5 40.5t39.5 16.5t40 -16.5t17 -40.5z" />
    <glyph glyph-name="Zcaron" unicode="&#x17d;" horiz-adv-x="629" 
d="M575 221q-8 -124 -39 -221h-507q-10 24 -7 45q48 50 146 183q32 43 104 142q107 150 166 251h-85q-128 0 -171 -14q-55 -17 -74 -76q-11 -33 -20 -89q-16 0 -24 3q-8 112 10 214h484q9 -26 6 -46q-46 -47 -160 -202q-32 -43 -104 -142q-78 -109 -156 -231h119
q123 0 168 14q56 19 86 80q15 32 32 93q18 0 26 -4zM505 955l-161 -229h-23l-160 229l33 13l139 -135l139 135z" />
    <glyph glyph-name="zcaron" unicode="&#x17e;" horiz-adv-x="450" 
d="M407 157q1 -54 -22 -157h-334q-9 15 -6 48q24 26 82 107q21 29 69 96q56 80 105 159q-101 0 -137 -9q-51 -13 -66 -55q-7 -19 -12 -58q-20 0 -24 2q-9 65 1 146l6 11h324q8 -20 4 -48q-30 -34 -92 -120q-21 -29 -69 -97q-44 -62 -96 -145q109 0 147 8q56 13 77 56
q11 22 20 58q15 0 23 -2zM403 775l-161 -229h-23l-159 229l32 13l139 -135l140 135z" />
    <glyph glyph-name="florin" unicode="&#x192;" horiz-adv-x="546" 
d="M521 584q-1 -58 -63 -58q1 11 1 21q0 85 -63 85q-39 0 -64 -30.5t-44 -102.5q-13 -48 -32 -151q62 1 170 4q-4 -31 -11 -45q-74 4 -165 4q-5 -27 -15 -92q-30 -188 -78 -284q-29 -59 -73 -93t-91 -34q-37 0 -62 16t-25 45q0 40 49 49q17 -29 36.5 -40.5t56.5 -12.5
q22 27 46 94q36 101 76 353q-38 0 -94 -2q-3 15 0 27l100 8q0 2 4.5 25t4.5 25q54 277 219 277q57 0 89 -27q28 -24 28 -61z" />
    <glyph glyph-name="circumflex" unicode="&#x2c6;" horiz-adv-x="560" 
d="M452 559l-33 -13l-139 135l-139 -135l-33 13l161 229h23z" />
    <glyph glyph-name="caron" unicode="&#x2c7;" horiz-adv-x="560" 
d="M452 775l-161 -229h-23l-160 229l33 13l139 -135l139 135z" />
    <glyph glyph-name="breve" unicode="&#x2d8;" horiz-adv-x="560" 
d="M414 710q-3 -63 -33 -104q-36 -48 -101 -48t-101 48q-30 41 -33 104h38q3 -38 29 -63t67 -25t67 25t29 63h38z" />
    <glyph glyph-name="dotaccent" unicode="&#x2d9;" horiz-adv-x="560" 
d="M337 659q0 -23 -17 -39.5t-40 -16.5t-40 16.5t-17 39.5q0 24 17 40.5t40 16.5t40 -16.5t17 -40.5z" />
    <glyph glyph-name="ring" unicode="&#x2da;" horiz-adv-x="560" 
d="M370 637q0 -37 -26.5 -63t-63.5 -26t-63.5 26t-26.5 63t26 62.5t64 25.5t64 -25.5t26 -62.5zM330 637q0 20 -14.5 35t-35.5 15t-35.5 -15t-14.5 -35q0 -21 14.5 -36t35.5 -15t35.5 15t14.5 36z" />
    <glyph glyph-name="ogonek" unicode="&#x2db;" horiz-adv-x="560" 
d="M374 -124q-45 -54 -101 -54q-34 0 -59 18q-28 20 -28 52q0 70 94 108h49v-5q-28 -7 -52.5 -31t-24.5 -50q0 -22 14.5 -36t35.5 -14q27 0 58 27z" />
    <glyph glyph-name="tilde" unicode="&#x2dc;" horiz-adv-x="560" 
d="M463 645q-69 -83 -122 -83q-24 0 -69 25.5t-70 25.5q-43 0 -82 -37l-23 31q69 83 122 83q24 0 69 -25.5t70 -25.5q43 0 82 37z" />
    <glyph glyph-name="hungarumlaut" unicode="&#x2dd;" horiz-adv-x="560" 
d="M477 711l-177 -168l-25 22l143 205zM285 711l-177 -168l-25 22l143 205z" />
    <glyph glyph-name="Delta" unicode="&#x394;" 
 />
    <glyph glyph-name="Delta" unicode="&#x2206;" 
 />
    <glyph glyph-name="Omega" unicode="&#x3a9;" 
 />
    <glyph glyph-name="Omega" unicode="&#x2126;" 
 />
    <glyph glyph-name="pi" unicode="&#x3c0;" 
 />
    <glyph glyph-name="endash" unicode="&#x2013;" horiz-adv-x="448" 
d="M448 219h-448v51h448v-51z" />
    <glyph glyph-name="emdash" unicode="&#x2014;" horiz-adv-x="896" 
d="M897 219h-897v51h897v-51z" />
    <glyph glyph-name="quoteleft" unicode="&#x2018;" horiz-adv-x="278" 
d="M208 443q0 -31 -18.5 -46.5t-43.5 -15.5q-38 0 -59 32q-17 27 -17 70q0 121 120 189l13 -21q-55 -38 -66 -83q-4 -16 -4 -30q0 -31 17.5 -49t47.5 -15q10 -13 10 -31z" />
    <glyph glyph-name="quoteright" unicode="&#x2019;" horiz-adv-x="268" 
d="M203 570q0 -120 -120 -189l-14 20q55 38 66 83q4 16 4 31q0 31 -17.5 48.5t-47.5 14.5q-9 16 -9 32q0 31 20 48q16 14 41 14q39 0 59 -32q18 -27 18 -70z" />
    <glyph glyph-name="quotesinglbase" unicode="&#x201a;" horiz-adv-x="278" 
d="M208 2q0 -120 -120 -189l-14 21q55 38 66 83q4 16 4 31q0 31 -17.5 48.5t-47.5 14.5q-9 16 -9 32q0 30 20 47q17 15 41 15q38 0 59 -32q18 -28 18 -71z" />
    <glyph glyph-name="quotedblleft" unicode="&#x201c;" horiz-adv-x="477" 
d="M407 443q0 -31 -18.5 -46.5t-43.5 -15.5q-38 0 -59 32q-17 27 -17 70q0 120 120 189l13 -21q-55 -38 -66 -83q-4 -16 -4 -30q0 -31 17.5 -49t47.5 -15q10 -13 10 -31zM208 443q0 -31 -18.5 -46.5t-43.5 -15.5q-38 0 -59 32q-17 27 -17 70q0 121 120 189l13 -21
q-55 -38 -66 -83q-4 -16 -4 -30q0 -31 17.5 -49t47.5 -15q10 -13 10 -31z" />
    <glyph glyph-name="quotedblright" unicode="&#x201d;" horiz-adv-x="477" 
d="M407 570q0 -120 -120 -189l-14 20q55 38 66 83q4 16 4 31q0 31 -17.5 48.5t-47.5 14.5q-9 16 -9 32q0 31 20 48q16 14 41 14q39 0 59 -32q18 -27 18 -70zM208 570q0 -120 -120 -189l-14 20q55 38 66 83q4 16 4 31q0 31 -17.5 48.5t-47.5 14.5q-9 16 -9 32q0 31 20 48
q16 14 41 14q39 0 59 -32q18 -27 18 -70z" />
    <glyph glyph-name="quotedblbase" unicode="&#x201e;" horiz-adv-x="490" 
d="M407 2q0 -120 -120 -189l-14 21q55 38 66 83q4 16 4 31q0 31 -17.5 48.5t-47.5 14.5q-9 16 -9 32q0 30 20 47q17 15 41 15q38 0 59 -32q18 -28 18 -71zM208 2q0 -120 -120 -189l-14 21q55 38 66 83q4 16 4 31q0 31 -17.5 48.5t-47.5 14.5q-9 16 -9 32q0 30 20 47
q17 15 41 15q38 0 59 -32q18 -28 18 -71z" />
    <glyph glyph-name="dagger" unicode="&#x2020;" horiz-adv-x="569" 
d="M487 427q0 -34 -5 -50q-75 18 -165 23q0 -519 23 -613q-24 -4 -55 -4q-32 0 -56 4q23 87 24 613q-91 -5 -166 -23q-4 17 -4 50q0 29 4 49q74 -16 166 -23q-4 129 -24 206q24 4 56 4q31 0 55 -4q-21 -82 -23 -206q91 7 165 23q5 -19 5 -49z" />
    <glyph glyph-name="daggerdbl" unicode="&#x2021;" horiz-adv-x="569" 
d="M487 427q0 -34 -5 -50q-75 18 -165 23v-354q81 4 165 23q5 -16 5 -50q0 -30 -5 -49q-84 19 -165 23q2 -124 23 -206q-24 -4 -55 -4q-32 0 -56 4q20 77 24 206q-82 -4 -166 -23q-4 20 -4 49q0 33 4 50q84 -19 166 -23v354q-91 -5 -166 -23q-4 17 -4 50q0 29 4 49
q74 -16 166 -23q-4 129 -24 206q24 4 56 4q31 0 55 -4q-21 -82 -23 -206q91 7 165 23q5 -19 5 -49z" />
    <glyph glyph-name="bullet" unicode="&#x2022;" horiz-adv-x="665" 
d="M525 329q0 -92 -65.5 -157t-157.5 -65q-91 0 -156.5 65.5t-65.5 156.5q0 92 65 157.5t157 65.5t157.5 -65.5t65.5 -157.5z" />
    <glyph glyph-name="ellipsis" unicode="&#x2026;" horiz-adv-x="797" 
d="M728 48q0 -25 -17.5 -43t-43.5 -18q-25 0 -43 18t-18 43t18 43t43 18t43 -18t18 -43zM470 48q0 -25 -18 -43t-43 -18t-43 18t-18 43t18 43t43 18t43 -18t18 -43zM211 48q0 -25 -17.5 -43t-43.5 -18q-25 0 -43 18t-18 43t18 43t43 18t43 -18t18 -43z" />
    <glyph glyph-name="perthousand" unicode="&#x2030;" horiz-adv-x="1050" 
d="M988 160q0 -71 -31 -118q-36 -55 -104 -55q-69 0 -104 49q-32 43 -33 116q-1 67 32 117q38 56 102 56q45 0 78 -24q60 -43 60 -141zM335 507q0 -72 -31 -118q-36 -55 -104 -55t-104 48q-32 44 -33 116q-1 68 32 117q37 57 102 57q67 0 104 -50q34 -45 34 -115zM564 659
l-356 -659h-47l357 659h46zM661 160q0 -83 -37 -128t-98 -45q-48 0 -80 24q-57 42 -57 141q0 68 32 117q38 56 102 56q46 0 79 -24q59 -43 59 -141zM937 153q0 61 -20 99q-23 43 -65 43q-41 0 -63.5 -37t-22.5 -100q0 -70 27 -108q23 -33 59 -33q40 0 60 30q25 37 25 106z
M284 499q0 61 -20 100q-23 43 -65 43q-41 0 -63.5 -37.5t-22.5 -99.5q0 -70 27 -108q23 -33 59 -33q40 0 60 30q25 37 25 105zM610 153q0 61 -20 99q-23 43 -65 43t-63.5 -37t-21.5 -100q0 -71 26 -108q23 -33 60 -33q39 0 59 30q25 37 25 106z" />
    <glyph glyph-name="guilsinglleft" unicode="&#x2039;" horiz-adv-x="348" 
d="M268 85l-23 -20q-101 104 -190 177q86 71 190 176l23 -19q-57 -90 -111 -157q59 -74 111 -157z" />
    <glyph glyph-name="guilsinglright" unicode="&#x203a;" horiz-adv-x="348" 
d="M293 242q-95 -79 -190 -177l-23 20q52 83 111 157q-54 67 -111 157l23 19q97 -99 190 -176z" />
    <glyph glyph-name="fraction" unicode="&#x2044;" horiz-adv-x="108" 
d="M268 659l-364 -659h-64l364 659h64z" />
    <glyph glyph-name="trademark" unicode="&#x2122;" horiz-adv-x="906" 
d="M840 342v-8q-1 -6 -1 -8h-142q0 3 1 9v7q28 3 37 12t9 37q0 22 -4 102q-3 59 -5 103q-24 -53 -56 -124l-64 -147l-18 -2q-20 49 -64 149q-18 40 -54 119q-4 -57 -6 -98q-1 -24 -2 -95q0 -30 11.5 -41t47.5 -15q0 -8 -2 -16h-131q0 12 1 16q27 3 36 13t11 36q4 63 6 102
q2 35 3 94q1 35 -6 43t-45 13q0 12 1 16h95q20 -54 66 -154q19 -42 51 -115l52 115q25 56 65 154h88q0 -12 -1 -16q-26 -3 -33 -12.5t-7 -36.5q1 -59 3 -101q3 -55 5 -95q2 -34 10 -43t42 -13zM357 659q5 -60 -4 -113q-4 -2 -14 -2q-2 28 -6 48q-7 32 -38 41q-16 5 -60 5
q-2 -68 -2 -145q0 -53 1 -95q1 -34 8 -43t40 -13q0 -12 -1 -16h-142q1 6 2 16q28 3 37.5 12.5t10.5 36.5q2 59 2 102q0 108 -1 145q-43 0 -59 -5q-30 -9 -40 -41q-7 -22 -10 -48q-10 0 -14 2q-4 66 5 113h285z" />
    <glyph glyph-name="partialdiff" unicode="&#x2202;" 
 />
    <glyph glyph-name="product" unicode="&#x220f;" 
 />
    <glyph glyph-name="summation" unicode="&#x2211;" 
 />
    <glyph glyph-name="radical" unicode="&#x221a;" 
 />
    <glyph glyph-name="infinity" unicode="&#x221e;" 
 />
    <glyph glyph-name="integral" unicode="&#x222b;" 
 />
    <glyph glyph-name="approxequal" unicode="&#x2248;" 
 />
    <glyph glyph-name="approxequal" unicode="&#x22f2;" 
 />
    <glyph glyph-name="notequal" unicode="&#x2260;" horiz-adv-x="565" 
d="M495 119h-241l-88 -158l-37 21l77 137h-136v51h164l49 89h-213v51h241l88 158l37 -20l-77 -138h136v-51h-164l-49 -89h213v-51z" />
    <glyph glyph-name="lessequal" unicode="&#x2264;" 
 />
    <glyph glyph-name="greaterequal" unicode="&#x2265;" 
 />
    <glyph glyph-name="lozenge" unicode="&#x25ca;" 
 />
    <glyph glyph-name="apple" unicode="&#xf000;" horiz-adv-x="514" 
d="M486 445h-57q-46 0 -50 -42q51 -50 51 -134t-50.5 -132t-132.5 -48q-33 0 -53 5v-46q17 -13 67 -29q92 -30 93 -31q113 -42 113 -121q0 -72 -68 -114q-59 -36 -136 -36q-74 0 -127 30q-63 37 -63 105l51 24q-1 -5 -1 -11q0 -47 49 -73q39 -20 91 -20t91 21q49 26 49 74
q0 37 -71 65q-65 23 -131 47q-71 31 -71 76q0 30 27 52q-91 43 -91 162q0 82 49.5 131t131.5 49q51 0 90 -17q4 70 80 70q10 0 20 -1l49 -6v-50zM344 -167h-30v43h30v-4h-25v-14h22v-4h-22v-16h25v-5zM298 -137q0 -13 -14 -13h-12v-17h-4v43h16q14 0 14 -13zM253 -126
l-17 -21v-20h-4v20l-17 21l3 2l16 -20l16 20zM205 -128h-15v-39h-5v39h-15v4h35v-4zM366 269q0 58 -30.5 91.5t-88.5 33.5q-56 0 -87.5 -34.5t-31.5 -90.5q0 -58 30.5 -92t88.5 -34q57 0 88 35t31 91zM293 -137q0 9 -9 9h-12v-17h12q5 0 7 2t2 6z" />
    <glyph glyph-name="fi" unicode="&#xf001;" horiz-adv-x="541" 
d="M453 659q0 -23 -17 -39.5t-40 -16.5t-40 16.5t-17 39.5q0 24 17 40.5t40 16.5t40 -16.5t17 -40.5zM454 442q-7 -124 -7 -244q0 -78 4 -198h-91q7 113 8 222v96t-18.5 64t-75.5 18q-45 3 -103 4v-70q-1 -47 -1 -71q0 -159 3 -263h-90q7 128 7 299q0 68 -1 106
q-29 0 -77 -2q-3 15 0 27q43 7 49 10q27 10 27 37v36q-1 23 -1 26q0 158 128 158q50 0 99 -22q0 -9 -4 -29q-10 2 -33 2q-63 0 -85 -34q-19 -29 -19 -106v-32q-1 -22 -1 -34q175 7 275 12z" />
    <glyph glyph-name="fl" unicode="&#xf002;" horiz-adv-x="532" 
d="M530 26q0 -15 -2 -21q-52 -9 -136 -9h-32l-7 11q6 100 6 304v247q0 48 -19 68.5t-71 20.5q-56 0 -76.5 -32.5t-20.5 -106.5v-67l113 3q-4 -31 -10 -44q-32 2 -104 4q-2 -92 -2 -141q0 -125 4 -263h-90q7 128 7 299v50q-1 36 -1 56q-29 0 -77 -2q-4 19 0 27q42 7 48 10
q27 10 27 37v62q0 158 133 158q49 0 106 -19q65 13 112 19l7 -12q-6 -130 -6 -418q0 -74 1 -128q2 -84 21 -95.5t69 -17.5z" />
    <glyph glyph-name="glyph221" 
 />
    <glyph glyph-name="HT" 
 />
    <glyph glyph-name="LF" 
 />
    <glyph glyph-name="nonmarkingreturn" 
 />
    <glyph glyph-name="DLE" 
 />
    <glyph glyph-name="DC1" 
 />
    <glyph glyph-name="DC2" 
 />
    <glyph glyph-name="DC3" 
 />
    <glyph glyph-name="DC4" 
 />
    <glyph glyph-name="RS" 
 />
    <glyph glyph-name="US" 
 />
    <glyph glyph-name="DEL" 
 />
    <glyph glyph-name=".null" horiz-adv-x="0" 
 />
    </font>
</defs>
</svg>
